<?xml version="1.0" encoding="UTF-8" standalone="no"?>
<svg
   id="Layer_1"
   data-name="Layer 1"
   viewBox="0 0 16 16"
   version="1.1"
   sodipodi:docname="favicon.svg"
   inkscape:version="1.2 (dc2aeda, 2022-05-15)"
   xmlns:inkscape="http://www.inkscape.org/namespaces/inkscape"
   xmlns:sodipodi="http://sodipodi.sourceforge.net/DTD/sodipodi-0.dtd"
   xmlns="http://www.w3.org/2000/svg"
   xmlns:svg="http://www.w3.org/2000/svg">
  <sodipodi:namedview
     id="namedview11"
     pagecolor="#505050"
     bordercolor="#eeeeee"
     borderopacity="1"
     inkscape:showpageshadow="0"
     inkscape:pageopacity="0"
     inkscape:pagecheckerboard="0"
     inkscape:deskcolor="#505050"
     showgrid="false"
     inkscape:zoom="14.75"
     inkscape:cx="8"
     inkscape:cy="8"
     inkscape:window-width="1309"
     inkscape:window-height="456"
     inkscape:window-x="0"
     inkscape:window-y="0"
     inkscape:window-maximized="0"
     inkscape:current-layer="Layer_1" />
  <defs
     id="defs4">
    <style
       id="style2">.cls-1{fill:#060b19;stroke:#060b19;stroke-miterlimit:10;}.cls-2{fill:#64ffda;}</style>
  </defs>
  <polygon
     class="cls-1"
     points="15.46 11.63 8 15.32 0.54 11.63 0.54 4.24 8 0.55 15.46 4.24 15.46 11.63"
     id="polygon6" />
  <path
     class="cls-2"
     d="m 6.2807678,5.2277163 a 0.74177975,0.74129628 0 0 0 0,-0.1837924 0.25134686,0.25118304 0 0 0 -0.085826,-0.1225283 0.49656331,0.49623966 0 0 0 -0.1716516,-0.073517 1.7532976,1.7521548 0 0 0 -0.2819989,0 H 5.4592927 5.1405112 L 5.1037288,4.6150748 5.747422,4.5476843 6.3052894,4.4986729 c 0.1716515,0 0.3371726,0 0.4843025,0 h 0.4291288 1.0912132 0.9011705 0.6130413 0.3126503 a 0.47817208,0.47786041 0 0 1 0.251347,0.055138 0.19004274,0.18991888 0 0 1 0.08583,0.1654132 c 0,0.030632 0,0.091896 0,0.1776661 0,0.08577 0,0.1899189 -0.03065,0.3001944 -0.03066,0.1102754 -0.03066,0.2328038 -0.04904,0.3614585 -0.01839,0.1286547 -0.03065,0.2450567 -0.04905,0.3553321 h -0.343306 c 0,-0.061264 0,-0.1225283 0,-0.177666 a 1.3364297,1.3355586 0 0 0 0,-0.1531605 A 1.3854729,1.38457 0 0 0 9.9651446,5.2338428 0.42912879,0.42884909 0 0 0 9.836406,5.0255446 0.55173701,0.5513774 0 0 0 9.5911897,4.8417522 3.4452911,3.4430456 0 0 0 9.1743218,4.8111201 H 7.2187207 q 0,0.4227227 -0.036782,1.0292378 c -0.012261,0.4043434 -0.042913,0.8576982 -0.042913,1.3478114 l 0.8214751,0.036758 h 0.6620844 c 0.2452165,0 0.4597809,0 0.6498236,0 A 4.7633295,4.7602249 0 0 0 9.811885,7.1759168 0.47817208,0.47786041 0 0 1 9.87319,7.3719621 0.17165151,0.17153964 0 0 1 9.805755,7.5006168 a 0.53334577,0.53299815 0 0 1 -0.177782,0.079643 2.6605985,2.6588644 0 0 1 -0.2881292,0.042885 3.6782467,3.6758494 0 0 1 -0.3800855,0 c -0.2452165,0 -0.5272154,0 -0.8398663,0 L 7.1390254,7.5128694 c 0,0.2082981 0,0.4227226 0,0.6126415 0,0.1899189 0,0.4533547 0,0.6861585 0,0.2328039 0,0.4594813 0,0.6984113 0,0.2389299 0,0.4717339 -0.030652,0.7045373 l -0.8337359,0.07352 H 6.0968554 c 0,-0.4839869 0.055174,-0.9434679 0.079695,-1.3723167 0.024521,-0.428849 0.036782,-0.8576981 0.055174,-1.2620416 l 0.036782,-1.2252831 c 0.00613,-0.3737113 0.012261,-0.7841812 0.012261,-1.2007774 z"
     id="path8"
     style="stroke-width:0.999997" />
</svg>
