<svg width="377" height="406" viewBox="0 0 377 406" fill="none" xmlns="http://www.w3.org/2000/svg">
<g id="Group">
<g id="Group_2">
<path id="Vector" d="M169.538 317.415C148.48 294.44 126.62 272.364 101.952 253.184C94.5317 247.39 85.7075 245.193 79.7912 252.085C74.3764 258.379 74.7775 267.369 80.8943 274.861C91.9245 288.247 102.855 301.832 115.289 313.919C135.243 333.298 156.401 351.479 177.058 370.259C177.66 371.258 178.261 372.157 178.863 373.155V373.255C181.972 378.05 188.49 379.449 193.303 376.352L198.116 373.255C240.131 346.184 271.016 306.527 307.616 273.363C309.321 271.864 309.321 266.87 308.318 264.372C306.413 259.378 301.5 258.479 296.185 259.278C278.938 261.975 263.596 270.865 250.359 282.253C234.516 295.938 218.572 309.424 203.029 323.509C204.233 309.124 205.135 294.74 205.035 280.355C204.634 248.19 202.628 216.024 201.325 183.859C212.856 126.221 206.238 67.184 208.645 8.8466C208.745 6.24939 205.236 2.15379 202.829 0.855179C197.915 -1.64214 193.804 1.65432 190.696 6.54907C180.367 22.8316 175.855 42.6104 174.652 62.6888C171.744 111.137 167.331 159.585 170.641 208.233C170.239 214.226 169.838 220.32 169.538 226.313C168.134 256.681 167.632 287.148 169.538 317.415Z" fill="white"/>
<path id="Vector_2" d="M158.823 389.054C152.516 388.875 146.21 388.696 139.903 388.562C99.8582 387.802 59.8138 387.579 19.9697 389.412C8.65716 389.948 -0.753263 392.005 0.0476245 396.029C0.848512 399.74 8.85738 402.467 20.4702 402.869C41.3934 403.629 62.4167 404.479 83.3399 404.39C117.077 404.211 150.714 403.316 184.452 402.735C244.819 407.877 306.687 404.926 367.755 405.999C370.458 406.044 374.763 404.479 376.064 403.406C378.767 401.215 375.263 399.382 370.057 397.996C353.039 393.391 332.316 391.379 311.192 390.842C260.636 389.591 209.88 387.623 158.823 389.054Z" fill="white"/>
</g>
</g>
</svg>
