<svg width="180" height="180" viewBox="0 0 180 180" fill="none" xmlns="http://www.w3.org/2000/svg">
<path d="M63.5958 75.6395H82.4567V77.1314H65.3247V88.3598H81.435V89.8517H65.3247V102.179H82.6531V103.671H63.5958V75.6395ZM84.1463 75.6395H86.1503L95.0306 87.9672L104.107 75.6395L116.453 59.9805L96.1701 89.2628L106.622 103.671H104.54L95.0306 90.5584L85.4823 103.671H83.439L93.9697 89.2628L84.1463 75.6395ZM107.369 77.1314V75.6395H128.862V77.1314H118.96V103.671H117.231V77.1314H107.369Z" fill="white"/>
<path d="M40 75.6394H42.1611L71.9621 120.019L59.6468 103.671L41.8075 77.7595L41.7289 103.671H40V75.6394Z" fill="white"/>
<path d="M128.688 101.729C129.046 101.729 129.306 101.457 129.306 101.105C129.306 100.753 129.046 100.48 128.688 100.48C128.335 100.48 128.07 100.753 128.07 101.105C128.07 101.457 128.335 101.729 128.688 101.729ZM130.387 100.087C130.387 101.126 131.14 101.805 132.237 101.805C133.406 101.805 134.113 101.105 134.113 99.8896V95.6113H133.171V99.8854C133.171 100.56 132.83 100.92 132.229 100.92C131.691 100.92 131.325 100.585 131.312 100.087H130.387ZM135.345 100.032C135.412 101.113 136.316 101.805 137.662 101.805C139.1 101.805 140 101.08 140 99.9232C140 99.0138 139.487 98.511 138.242 98.2219L137.574 98.0584C136.783 97.8741 136.463 97.6268 136.463 97.1952C136.463 96.6505 136.96 96.2943 137.704 96.2943C138.41 96.2943 138.898 96.6421 138.987 97.1994H139.903C139.849 96.1812 138.949 95.4646 137.717 95.4646C136.392 95.4646 135.509 96.1812 135.509 97.2581C135.509 98.1464 136.009 98.6744 137.107 98.93L137.889 99.1186C138.692 99.3072 139.045 99.5837 139.045 100.045C139.045 100.581 138.49 100.971 137.733 100.971C136.922 100.971 136.358 100.606 136.278 100.032H135.345Z" fill="white"/>
</svg>
