<svg width="180" height="180" viewBox="0 0 180 180" fill="none" xmlns="http://www.w3.org/2000/svg">
<path d="M70.3989 123.794C70.3246 123.666 70.2583 123.534 70.2005 123.398C69.8014 122.495 69.6787 121.499 69.8474 120.529H46.2067L81.3396 60.1594L92.874 79.9578L96.2177 74.1801L86.163 56.8854C85.6812 55.9996 84.9797 55.2459 84.1226 54.6932C83.2655 54.1404 82.2802 53.8062 81.2568 53.7212C80.2354 53.7665 79.2476 54.0908 78.4056 54.6572C77.5637 55.2236 76.9015 56.0093 76.4943 56.9251L40.9021 118.027C40.37 118.89 40.0633 119.867 40.0088 120.873C39.9543 121.878 40.1537 122.882 40.5896 123.794C41.1369 124.637 41.9149 125.313 42.8355 125.747C43.7561 126.181 44.7827 126.354 45.7989 126.247H75.6099C74.5934 126.356 73.5663 126.183 72.6454 125.749C71.7245 125.316 70.9467 124.638 70.4005 123.794H70.3989Z" fill="#00C492"/>
<path d="M138.936 118.026L109.688 67.7205C109.208 66.8253 108.505 66.0626 107.644 65.5026C106.783 64.9427 105.791 64.6036 104.76 64.5166C103.74 64.5598 102.753 64.8821 101.911 65.4467C101.07 66.0113 100.408 66.7955 100.001 67.7098L96.2177 74.1785L99.5833 79.9577L104.791 70.9548L133.727 120.528H122.724C122.865 121.347 122.785 122.188 122.494 122.969C122.433 123.141 122.356 123.308 122.265 123.468L122.171 123.651C121.573 124.475 120.776 125.143 119.852 125.595C118.927 126.048 117.902 126.271 116.868 126.244H134.08C135.114 126.271 136.14 126.049 137.065 125.596C137.99 125.144 138.786 124.476 139.383 123.651C139.855 122.766 140.063 121.77 139.984 120.776C139.905 119.782 139.542 118.829 138.936 118.026Z" fill="#008776"/>
<path d="M122.172 123.652L122.266 123.469C122.357 123.31 122.433 123.143 122.494 122.97C122.785 122.19 122.865 121.349 122.724 120.529C122.562 119.646 122.237 118.798 121.765 118.027L99.6052 79.9578L96.2193 74.1802L92.8537 79.9578L70.7021 118.027C70.2721 118.807 69.9829 119.654 69.8474 120.529C69.6691 121.496 69.7814 122.493 70.1708 123.399C70.2286 123.535 70.2949 123.668 70.3693 123.796C70.9168 124.638 71.6949 125.315 72.6155 125.748C73.5361 126.181 74.5625 126.354 75.5787 126.248H116.837C117.876 126.278 118.906 126.056 119.837 125.604C120.767 125.152 121.569 124.482 122.171 123.654L122.172 123.652ZM96.2177 85.737L116.472 120.528H75.9724L96.2177 85.737Z" fill="#2D4A5D"/>
</svg>
