<svg width="181" height="181" viewBox="0 0 181 181" fill="none" xmlns="http://www.w3.org/2000/svg">
<path fill-rule="evenodd" clip-rule="evenodd" d="M91.0044 140V120.62C111.517 120.62 127.441 100.278 119.563 78.6879C118.117 74.7215 115.82 71.1195 112.835 68.134C109.85 65.1484 106.248 62.8517 102.282 61.4045C80.6918 53.5853 60.3494 69.4504 60.3494 89.9634H41.026C41.026 57.2702 72.6459 31.7705 106.928 42.4783C121.888 47.1843 133.844 59.0816 138.491 74.0441C149.201 108.38 123.758 140 91.0044 140Z" fill="#0080FF"/>
<path fill-rule="evenodd" clip-rule="evenodd" d="M71.7954 120.676H91.0606V101.411H71.7974L71.7954 120.676ZM56.9493 135.523H71.7934V120.678H56.9493V135.523ZM44.5385 120.678H56.9493V108.266H44.5385V120.678Z" fill="#0080FF"/>
</svg>
