<svg width="181" height="181" viewBox="0 0 181 181" fill="none" xmlns="http://www.w3.org/2000/svg">
<path d="M139.014 81.2096C138.743 80.9942 136.211 79.0825 130.871 79.0825C129.461 79.0886 128.055 79.2095 126.664 79.4441C125.631 72.3609 119.775 68.9075 119.512 68.7526L118.079 67.9258L117.136 69.2865C115.955 71.1144 115.093 73.1294 114.586 75.2459C113.63 79.2892 114.212 83.0868 116.266 86.3335C113.786 87.7157 109.807 88.0559 109.002 88.086H43.1303C41.4097 88.0884 40.0136 89.4788 40.0042 91.1992C39.9274 96.9699 40.9051 102.706 42.8891 108.126C45.1583 114.076 48.5342 118.46 52.9262 121.142C57.8478 124.156 65.8439 125.879 74.9077 125.879C79.0024 125.892 83.0893 125.521 87.115 124.772C92.711 123.745 98.0959 121.789 103.047 118.985C107.126 116.623 110.798 113.617 113.919 110.085C119.138 104.177 122.247 97.5976 124.559 91.7503H125.48C131.194 91.7503 134.708 89.4638 136.646 87.5477C137.933 86.3257 138.939 84.8371 139.591 83.1859L140 81.9889L139.014 81.2096Z" fill="#2496ED"/>
<path d="M49.236 86.157H58.063C58.4888 86.157 58.8337 85.8118 58.8337 85.3862V77.5236C58.8361 77.0978 58.493 76.7509 58.0674 76.7485C58.066 76.7485 58.0644 76.7485 58.063 76.7485H49.236C48.8102 76.7485 48.4653 77.0937 48.4653 77.5192V77.5236V85.3861C48.4653 85.8118 48.8102 86.157 49.236 86.157Z" fill="#2496ED"/>
<path d="M61.4002 86.157H70.2272C70.653 86.157 70.998 85.8118 70.998 85.3862V77.5236C71.0003 77.0978 70.6572 76.7509 70.2314 76.7485C70.23 76.7485 70.2285 76.7485 70.2271 76.7485H61.4C60.9719 76.7485 60.625 77.0955 60.625 77.5236V85.3861C60.6275 85.8125 60.9738 86.157 61.4002 86.157Z" fill="#2496ED"/>
<path d="M73.7494 86.157H82.5764C83.0022 86.157 83.3471 85.8118 83.3471 85.3862V77.5236C83.3495 77.0978 83.0064 76.7509 82.5806 76.7485C82.5792 76.7485 82.5777 76.7485 82.5763 76.7485H73.7492C73.3235 76.7485 72.9785 77.0937 72.9785 77.5192V77.5236V85.3861C72.9787 85.8118 73.3238 86.157 73.7494 86.157Z" fill="#2496ED"/>
<path d="M85.9523 86.157H94.7793C95.2058 86.157 95.552 85.8127 95.5544 85.3862V77.5236C95.5544 77.0955 95.2075 76.7485 94.7793 76.7485H85.9523C85.5266 76.7485 85.1816 77.0937 85.1816 77.5192V77.5236V85.3861C85.1816 85.8118 85.5267 86.157 85.9523 86.157Z" fill="#2496ED"/>
<path d="M61.4002 74.8453H70.2272C70.6535 74.8429 70.9979 74.4965 70.9979 74.0702V66.2077C70.9979 65.782 70.6528 65.437 70.2272 65.437H61.4002C60.9739 65.437 60.6275 65.7813 60.6251 66.2077V74.0702C60.6275 74.4974 60.973 74.8429 61.4002 74.8453Z" fill="#2496ED"/>
<path d="M73.7493 74.8453H82.5764C83.0027 74.8429 83.3471 74.4965 83.3471 74.0702V66.2077C83.3471 65.782 83.002 65.437 82.5764 65.437H73.7493C73.3236 65.437 72.9786 65.7821 72.9786 66.2077V74.0702C72.9786 74.4965 73.3231 74.8429 73.7493 74.8453Z" fill="#2496ED"/>
<path d="M85.9523 74.8453H94.7793C95.2065 74.8429 95.552 74.4974 95.5544 74.0702V66.2077C95.552 65.7813 95.2058 65.437 94.7793 65.437H85.9523C85.5266 65.437 85.1816 65.7821 85.1816 66.2077V74.0702C85.1816 74.4965 85.526 74.8429 85.9523 74.8453Z" fill="#2496ED"/>
<path d="M85.9523 63.5295H94.7793C95.2058 63.5295 95.552 63.1851 95.5544 62.7588V54.8918C95.552 54.4654 95.2058 54.1211 94.7793 54.1211H85.9523C85.5266 54.1211 85.1816 54.4661 85.1816 54.8918V62.7587C85.1816 63.1844 85.5267 63.5295 85.9523 63.5295Z" fill="#2496ED"/>
<path d="M98.2628 86.157H107.09C107.516 86.157 107.863 85.8127 107.865 85.3862V77.5236C107.865 77.0955 107.518 76.7485 107.09 76.7485H98.2628C97.8372 76.7485 97.4921 77.0937 97.4921 77.5192V77.5236V85.3861C97.4921 85.8118 97.8372 86.157 98.2628 86.157Z" fill="#2496ED"/>
</svg>
