<svg width="100" height="100" viewBox="0 0 100 100" fill="none" xmlns="http://www.w3.org/2000/svg">
<path d="M49.9152 74.4375C72.0391 104.597 93.6902 66.0195 93.6582 42.8203C93.6211 15.3922 65.8203 0.0625 49.8973 0.0625C24.3395 0.0621094 0 21.1844 0 50.0844C0 82.207 27.9004 100 49.8973 100C44.9195 99.2832 28.3309 95.7289 28.1082 57.5207C27.9578 31.6793 36.5379 21.3547 49.8613 25.8965C50.1598 26.007 64.5574 31.6867 64.5574 50.2402C64.5574 68.7152 49.9152 74.4371 49.9152 74.4371V74.4375Z" fill="url(#paint0_linear_212_217)"/>
<path d="M49.8895 25.8752C35.2708 20.8365 17.3625 32.8854 17.3625 57.0182C17.3625 96.4232 46.5629 99.9998 50.1028 99.9998C75.6606 99.9998 100 78.8771 100 49.9775C100 17.8549 72.0997 0.0619558 50.1028 0.0619558C56.1954 -0.781794 82.9407 6.6557 82.9407 43.2096C82.9407 67.0478 62.9704 80.0252 49.9813 74.4807C49.6829 74.3701 35.2848 68.6904 35.2848 50.1369C35.2848 31.6615 49.8895 25.8752 49.8895 25.8752V25.8752Z" fill="url(#paint1_linear_212_217)"/>
<defs>
<linearGradient id="paint0_linear_212_217" x1="14.7896" y1="14.7903" x2="89.4888" y2="80.3966" gradientUnits="userSpaceOnUse">
<stop/>
<stop offset="1" stop-color="white"/>
</linearGradient>
<linearGradient id="paint1_linear_212_217" x1="85.2377" y1="85.2368" x2="4.38663" y2="30.0243" gradientUnits="userSpaceOnUse">
<stop/>
<stop offset="1" stop-color="white"/>
</linearGradient>
</defs>
</svg>
