<svg width="181" height="181" viewBox="0 0 181 181" fill="none" xmlns="http://www.w3.org/2000/svg">
<path d="M86.9057 42.0669C89.3852 40.6476 92.6148 40.6412 95.0922 42.0669C107.556 49.1094 120.023 56.141 132.485 63.1878C134.829 64.5081 136.396 67.1166 136.373 69.8173V112.188C136.39 115.001 134.667 117.671 132.195 118.962C119.772 125.966 107.356 132.978 94.9352 139.982C92.4044 141.429 89.1099 141.317 86.6582 139.752C82.9339 137.593 79.2032 135.444 75.4785 133.287C74.7174 132.834 73.8594 132.473 73.322 131.735C73.7971 131.094 74.6465 131.014 75.3368 130.735C76.8914 130.24 78.3192 129.447 79.7474 128.677C80.1085 128.43 80.5494 128.525 80.8956 128.746C84.0803 130.572 87.2369 132.451 90.4323 134.259C91.114 134.653 91.8042 134.13 92.3869 133.806C104.577 126.916 116.783 120.052 128.971 113.16C129.423 112.943 129.672 112.463 129.636 111.969C129.644 97.9915 129.638 84.0118 129.64 70.0345C129.691 69.4732 129.367 68.9572 128.859 68.7274C116.48 61.7557 104.106 54.7733 91.7291 47.7999C91.5146 47.6524 91.2606 47.5733 91.0004 47.5729C90.7401 47.5726 90.4859 47.6509 90.271 47.7977C77.8936 54.7733 65.5226 61.7621 53.1452 68.7335C52.6395 68.9636 52.3 69.4711 52.3602 70.0345C52.3624 84.0118 52.3602 97.9915 52.3602 111.971C52.3388 112.212 52.3918 112.454 52.5121 112.665C52.6325 112.875 52.8144 113.043 53.0334 113.147C56.3363 115.02 59.6436 116.88 62.9487 118.747C64.8106 119.749 67.0968 120.344 69.1482 119.577C70.9586 118.927 72.2275 117.08 72.193 115.158C72.2101 101.262 72.1844 87.3642 72.2058 73.4707C72.1606 72.8538 72.7457 72.3442 73.3455 72.4022C74.9325 72.3916 76.5217 72.3809 78.1087 72.4065C78.7711 72.3916 79.227 73.0558 79.1451 73.6773C79.1387 87.6609 79.1622 101.645 79.1344 115.629C79.1387 119.355 77.6076 123.411 74.1604 125.234C69.9136 127.434 64.6646 126.967 60.4691 124.858C56.8371 123.045 53.371 120.906 49.8034 118.964C47.3242 117.68 45.6101 114.999 45.6275 112.188V69.8173C45.6015 67.0606 47.2316 64.4048 49.6485 63.1038C62.069 56.0943 74.4873 49.0795 86.9057 42.0669Z" fill="#8CC84B"/>
<path d="M97.7413 71.4174C103.158 71.0687 108.958 71.2108 113.832 73.8795C117.606 75.9245 119.699 80.2165 119.765 84.4095C119.66 84.9751 119.069 85.2871 118.529 85.2483C116.957 85.2461 115.385 85.2696 113.813 85.2376C113.147 85.2632 112.759 84.6485 112.676 84.0591C112.224 82.0529 111.13 80.0659 109.241 79.0982C106.343 77.6469 102.982 77.7199 99.8209 77.7502C97.5134 77.8727 95.032 78.0725 93.0771 79.4294C91.5763 80.4573 91.1204 82.5322 91.6561 84.2033C92.1611 85.4032 93.5462 85.7903 94.6794 86.1472C101.208 87.8546 108.126 87.6847 114.529 89.9317C117.181 90.8477 119.774 92.6285 120.682 95.4043C121.869 99.1247 121.348 103.572 118.701 106.558C116.555 109.016 113.428 110.354 110.31 111.08C106.162 112.005 101.857 112.029 97.6448 111.618C93.6836 111.167 89.5615 110.126 86.5036 107.427C83.8887 105.157 82.6115 101.619 82.7383 98.2044C82.7686 97.6278 83.3427 97.2257 83.8951 97.2731C85.4779 97.2603 87.0606 97.256 88.6434 97.2752C89.2755 97.23 89.7442 97.7763 89.7766 98.3722C90.0687 100.284 90.787 102.29 92.4538 103.423C95.6706 105.498 99.7069 105.356 103.39 105.414C106.442 105.279 109.867 105.238 112.357 103.221C113.671 102.071 114.061 100.146 113.706 98.4904C113.321 97.0925 111.859 96.4411 110.603 96.0151C104.158 93.9765 97.1629 94.7163 90.7806 92.4109C88.1896 91.4952 85.6841 89.7639 84.6886 87.1021C83.2996 83.3347 83.9361 78.6747 86.8605 75.7888C89.7118 72.9182 93.8279 71.8127 97.7413 71.4171V71.4174Z" fill="#8CC84B"/>
</svg>
