<svg
   width="100%"
   viewBox="0 0 90 20"
   xmlns:xlink="http://www.w3.org/1999/xlink"
   xmlns="http://www.w3.org/2000/svg"
   xmlns:svg="http://www.w3.org/2000/svg">
   <defs
      id="defs2">
      <linearGradient
         id="linearGradient3260">
         <stop
            style="stop-color:#ffffff;stop-opacity:1;"
            offset="0"
            id="stop3256" />
         <stop
            style="stop-color:#f8f8f8;stop-opacity:0.37337667;"
            offset="0.94000006"
            id="stop3258" />
      </linearGradient>
      <linearGradient
         id="linearGradient3236"
      >
         <stop
            style="stop-color:#ffffff;stop-opacity:1;"
            offset="0"
            id="stop3234" />
      </linearGradient>
      <linearGradient
         id="linearGradient3204">
         <stop
            style="stop-color:#000000;stop-opacity:1;"
            offset="0"
            id="stop3200" />
         <stop
            style="stop-color:#000000;stop-opacity:0;"
            offset="0"
            id="stop3202" />
      </linearGradient>
      <linearGradient
         id="linearGradient3196"
      >
         <stop
            style="stop-color:#ffffff;stop-opacity:0.58431375;"
            offset="0"
            id="stop3194" />
      </linearGradient>
      <radialGradient
         xlink:href="#linearGradient3204"
         id="radialGradient3208"
         cx="33.942314"
         cy="12.785632"
         fx="33.942314"
         fy="12.785632"
         r="33.676636"
         gradientTransform="matrix(1.0446708,0,0,0.35554125,-0.48507459,9.0320582)"
         gradientUnits="userSpaceOnUse" />
      <radialGradient
         xlink:href="#linearGradient3260"
         id="radialGradient3262"
         cx="34.973461"
         cy="13.577878"
         fx="34.973461"
         fy="13.577878"
         r="35.022652"
         gradientTransform="matrix(1,0,0,0.33735579,0,8.9973025)"
         gradientUnits="userSpaceOnUse" />
      <radialGradient
         xlink:href="#linearGradient3260"
         id="radialGradient3289"
         gradientUnits="userSpaceOnUse"
         gradientTransform="matrix(1,0,0,0.33735579,4.7213852,8.8175369)"
         cx="34.973461"
         cy="13.577878"
         fx="34.973461"
         fy="13.577878"
         r="35.022652" />
      <radialGradient
         xlink:href="#linearGradient3204"
         id="radialGradient3291"
         gradientUnits="userSpaceOnUse"
         gradientTransform="matrix(1.0446708,0,0,0.35554125,4.2363106,8.8522926)"
         cx="33.942314"
         cy="12.785632"
         fx="33.942314"
         fy="12.785632"
         r="33.676636" />
      <radialGradient
         xlink:href="#linearGradient3260"
         id="radialGradient3293"
         gradientUnits="userSpaceOnUse"
         gradientTransform="matrix(1.405029,0,0,0.55440849,6.2373119,4.3977903)"
         cx="34.973461"
         cy="13.577878"
         fx="34.973461"
         fy="13.577878"
         r="35.022652" />
      <radialGradient
         xlink:href="#linearGradient3204"
         id="radialGradient3295"
         gradientUnits="userSpaceOnUse"
         gradientTransform="matrix(1.4677927,0,0,0.58429436,5.5557678,4.4549076)"
         cx="33.942314"
         cy="12.785632"
         fx="33.942314"
         fy="12.785632"
         r="33.676636" />
      <radialGradient
         xlink:href="#linearGradient3260"
         id="radialGradient3297"
         gradientUnits="userSpaceOnUse"
         gradientTransform="matrix(1,0,0,0.33735579,8.5575106,8.4580057)"
         cx="34.973461"
         cy="13.577878"
         fx="34.973461"
         fy="13.577878"
         r="35.022652" />
      <radialGradient
         xlink:href="#linearGradient3204"
         id="radialGradient3299"
         gradientUnits="userSpaceOnUse"
         gradientTransform="matrix(1.0446708,0,0,0.35554125,8.072436,8.4927614)"
         cx="33.942314"
         cy="12.785632"
         fx="33.942314"
         fy="12.785632"
         r="33.676636" />
      <radialGradient
         xlink:href="#linearGradient3260"
         id="radialGradient3301"
         gradientUnits="userSpaceOnUse"
         gradientTransform="matrix(1,0,0,0.33735579,8.5575106,8.4580057)"
         cx="34.973461"
         cy="13.577878"
         fx="34.973461"
         fy="13.577878"
         r="35.022652" />
      <radialGradient
         xlink:href="#linearGradient3204"
         id="radialGradient3303"
         gradientUnits="userSpaceOnUse"
         gradientTransform="matrix(1.0446708,0,0,0.35554125,8.072436,8.4927614)"
         cx="33.942314"
         cy="12.785632"
         fx="33.942314"
         fy="12.785632"
         r="33.676636" />
      <radialGradient
         xlink:href="#linearGradient3260"
         id="radialGradient3305"
         gradientUnits="userSpaceOnUse"
         gradientTransform="matrix(1,0,0,0.33735579,8.5575106,8.4580057)"
         cx="34.973461"
         cy="13.577878"
         fx="34.973461"
         fy="13.577878"
         r="35.022652" />
      <radialGradient
         xlink:href="#linearGradient3204"
         id="radialGradient3307"
         gradientUnits="userSpaceOnUse"
         gradientTransform="matrix(1.0446708,0,0,0.35554125,8.072436,8.4927614)"
         cx="33.942314"
         cy="12.785632"
         fx="33.942314"
         fy="12.785632"
         r="33.676636" />
      <radialGradient
         xlink:href="#linearGradient3260"
         id="radialGradient3309"
         gradientUnits="userSpaceOnUse"
         gradientTransform="matrix(1,0,0,0.33735579,8.5575106,8.4580057)"
         cx="34.973461"
         cy="13.577878"
         fx="34.973461"
         fy="13.577878"
         r="35.022652" />
      <radialGradient
         xlink:href="#linearGradient3204"
         id="radialGradient3311"
         gradientUnits="userSpaceOnUse"
         gradientTransform="matrix(1.0446708,0,0,0.35554125,8.072436,8.4927614)"
         cx="33.942314"
         cy="12.785632"
         fx="33.942314"
         fy="12.785632"
         r="33.676636" />
      <radialGradient
         xlink:href="#linearGradient3260"
         id="radialGradient3313"
         gradientUnits="userSpaceOnUse"
         gradientTransform="matrix(1,0,0,0.33735579,0,8.9973025)"
         cx="34.973461"
         cy="13.577878"
         fx="34.973461"
         fy="13.577878"
         r="35.022652" />
      <radialGradient
         xlink:href="#linearGradient3204"
         id="radialGradient3315"
         gradientUnits="userSpaceOnUse"
         gradientTransform="matrix(1.0446708,0,0,0.35554125,-0.48507459,9.0320582)"
         cx="33.942314"
         cy="12.785632"
         fx="33.942314"
         fy="12.785632"
         r="33.676636" />
      <radialGradient
         xlink:href="#linearGradient3260"
         id="radialGradient3317"
         gradientUnits="userSpaceOnUse"
         gradientTransform="matrix(1,0,0,0.33735579,0,8.9973025)"
         cx="34.973461"
         cy="13.577878"
         fx="34.973461"
         fy="13.577878"
         r="35.022652" />
      <radialGradient
         xlink:href="#linearGradient3204"
         id="radialGradient3319"
         gradientUnits="userSpaceOnUse"
         gradientTransform="matrix(1.0446708,0,0,0.35554125,-0.48507459,9.0320582)"
         cx="33.942314"
         cy="12.785632"
         fx="33.942314"
         fy="12.785632"
         r="33.676636" />
      <radialGradient
         xlink:href="#linearGradient3260"
         id="radialGradient3321"
         gradientUnits="userSpaceOnUse"
         gradientTransform="matrix(1,0,0,0.33735579,0,8.9973025)"
         cx="34.973461"
         cy="13.577878"
         fx="34.973461"
         fy="13.577878"
         r="35.022652" />
      <radialGradient
         xlink:href="#linearGradient3204"
         id="radialGradient3323"
         gradientUnits="userSpaceOnUse"
         gradientTransform="matrix(1.0446708,0,0,0.35554125,-0.48507459,9.0320582)"
         cx="33.942314"
         cy="12.785632"
         fx="33.942314"
         fy="12.785632"
         r="33.676636" />
      <radialGradient
         xlink:href="#linearGradient3260"
         id="radialGradient3325"
         gradientUnits="userSpaceOnUse"
         gradientTransform="matrix(1,0,0,0.33735579,0,8.9973025)"
         cx="34.973461"
         cy="13.577878"
         fx="34.973461"
         fy="13.577878"
         r="35.022652" />
      <radialGradient
         xlink:href="#linearGradient3204"
         id="radialGradient3327"
         gradientUnits="userSpaceOnUse"
         gradientTransform="matrix(1.0446708,0,0,0.35554125,-0.48507459,9.0320582)"
         cx="33.942314"
         cy="12.785632"
         fx="33.942314"
         fy="12.785632"
         r="33.676636" />
      <radialGradient
         xlink:href="#linearGradient3260"
         id="radialGradient3329"
         gradientUnits="userSpaceOnUse"
         gradientTransform="matrix(1,0,0,0.33735579,0,8.9973025)"
         cx="34.973461"
         cy="13.577878"
         fx="34.973461"
         fy="13.577878"
         r="35.022652" />
      <radialGradient
         xlink:href="#linearGradient3204"
         id="radialGradient3331"
         gradientUnits="userSpaceOnUse"
         gradientTransform="matrix(1.0446708,0,0,0.35554125,-0.48507459,9.0320582)"
         cx="33.942314"
         cy="12.785632"
         fx="33.942314"
         fy="12.785632"
         r="33.676636" />
      <radialGradient
         xlink:href="#linearGradient3260"
         id="radialGradient3333"
         gradientUnits="userSpaceOnUse"
         gradientTransform="matrix(1,0,0,0.33735579,0,8.9973025)"
         cx="34.973461"
         cy="13.577878"
         fx="34.973461"
         fy="13.577878"
         r="35.022652" />
      <radialGradient
         xlink:href="#linearGradient3204"
         id="radialGradient3335"
         gradientUnits="userSpaceOnUse"
         gradientTransform="matrix(1.0446708,0,0,0.35554125,-0.48507459,9.0320582)"
         cx="33.942314"
         cy="12.785632"
         fx="33.942314"
         fy="12.785632"
         r="33.676636" />
   </defs>
   <g
      id="layer2"
      style="display:inline"
      transform="translate(-8.8153746,-4.207261)">
      <g
         aria-label="Flynn OConnell"
         transform="matrix(1.1038081,0,0,0.90595458,-2.2800326,3.7457679)"
         id="text792"
         style="font-size:6.0535px;font-family:Zapfino;-inkscape-font-specification:'Zapfino, Normal';fill:url(#radialGradient3262);fill-rule:evenodd;stroke:url(#radialGradient3208);stroke-width:7.089;stroke-linecap:round;stroke-linejoin:round;stroke-dasharray:7.089, 14.178;paint-order:markers stroke fill">
         <path
            d="m 19.143347,9.2518787 q 0,0.049746 -0.0638,0.248708 -0.0638,0.1740946 -0.170106,0.2487063 -0.233899,0 -0.595375,0.024865 -0.340214,0 -0.722954,0.024865 -0.382741,0 -0.765481,0 -0.38274,0 -0.680427,0 -0.340214,0 -0.744218,0 -0.382741,-0.024865 -0.616639,-0.07461 -0.170107,0 -0.276423,0.198966 -0.722954,1.442502 -1.190748,2.487073 -0.44653,1.019698 -0.616636,1.541984 -0.0638,0.223837 -0.0638,0.397931 0,0.223837 0.170107,0.397931 0.170105,0.14922 0.786741,0.14922 0.12758,0 0.12758,0.09947 0,0.07461 -0.106326,0.09947 -0.12758,0.02486 -0.25516,0.02486 -0.106325,0 -0.233897,0 -0.659164,0 -1.063168,-0.02486 -0.382739,-0.02486 -0.595374,-0.07461 -0.212634,-0.04974 -0.276423,-0.124356 -0.04253,-0.07461 -0.04253,-0.198965 0,-0.124355 0.106325,-0.373062 0.425267,-0.945086 1.041905,-2.014527 0.616637,-1.06941 1.063168,-1.989627 0.680427,-1.3678891 1.382118,-2.860132 0.70169,-1.517113 1.212011,-2.8601316 0.08506,-0.2487051 -0.106326,-0.2735759 -0.148843,-0.024871 -0.425267,-0.024871 -0.25516,-0.024871 -0.425267,-0.024871 -0.106325,0 -0.12758,0 0,-0.024871 0,-0.074612 0,-0.1492235 0.106326,-0.1492235 0.361476,0.024871 0.956851,0.024871 0.595374,0 1.105693,0 0.467795,0 1.020643,-0.024871 0.574109,-0.049742 1.14822,-0.1243539 0.574111,-0.099483 1.105696,-0.2238364 0.531584,-0.149225 0.914326,-0.3481901 0.04253,-0.024871 0.08506,-0.024871 0.106325,0 0.106325,0.074611 -0.191367,0.2487074 -0.297684,0.5720266 -0.08506,0.2487071 -0.255161,0.2487071 -0.38274,0.024871 -0.829272,0.049743 -0.44653,0 -0.914324,0.024871 -0.467795,0 -0.914325,0.024871 -0.425268,0 -0.744217,0.024871 -0.170106,0.024871 -0.255162,0.099483 -0.06378,0.074611 -0.148843,0.2238363 -0.191369,0.3233194 -0.489055,0.9450872 -0.297689,0.5968978 -0.637902,1.2684067 -0.31895,0.6715091 -0.616637,1.2932773 -0.276423,0.6217682 -0.446531,0.9948286 0,0.1492201 0.361477,0.2735774 0.361477,0.1243557 1.041904,0.1243557 0.744217,0 1.467172,-0.07461 0.744216,-0.099475 1.360856,-0.2984486 z"
            id="path3264"
            style="display:inline;fill:url(#radialGradient3293);stroke:url(#radialGradient3295);stroke-width:7.08899" />
         <path
            d="m 24.311147,5.0403945 q 0,0.2118725 -0.166471,0.6204837 -0.166471,0.4086113 -0.48428,0.9534263 -0.302675,0.5296813 -0.756688,1.150165 -0.438878,0.6053501 -1.013961,1.2107001 -0.559949,0.6053496 -1.240967,1.1652984 -0.681019,0.544815 -1.45284,0.96856 -0.136204,0.24214 -0.378344,0.650751 -0.24214,0.408612 -0.48428,0.862624 -0.227007,0.454013 -0.408612,0.892892 -0.166471,0.438878 -0.166471,0.741553 0,0.48428 0.438879,0.48428 0.378344,0 0.786955,-0.211872 0.408611,-0.211873 0.771821,-0.514548 0.378344,-0.302675 0.696153,-0.635617 0.332942,-0.348077 0.559949,-0.620484 0.105936,-0.105936 0.12107,-0.0454 0.01513,0.0454 -0.0454,0.105936 -0.272407,0.332943 -0.650751,0.711286 -0.36321,0.378344 -0.786955,0.696153 -0.408611,0.317809 -0.862624,0.529681 -0.454012,0.211873 -0.908025,0.211873 -0.393478,0 -0.575083,-0.181605 -0.166471,-0.196739 -0.166471,-0.469147 0,-0.272407 0.227006,-0.771821 0.24214,-0.514548 0.559949,-1.074496 0.317809,-0.559949 0.635618,-1.059363 0.317809,-0.499414 0.469146,-0.756687 0.257274,-0.438879 0.529682,-0.9080248 Q 19.846693,9.2627118 20.1191,8.8086993 20.391508,8.3546868 20.633648,7.9460756 20.890922,7.5223305 21.102794,7.2045218 21.360068,6.8110443 21.632475,6.462968 21.904883,6.1148917 22.328628,5.7668155 22.90371,5.2825355 23.38799,5.0252617 23.872271,4.767988 24.038742,4.767988 q 0.12107,0 0.196739,0.075669 0.07567,0.060535 0.07567,0.1967388 z M 23.630129,5.433872 q 0,-0.24214 -0.196739,-0.24214 -0.07567,0 -0.166472,0.045401 -0.0908,0.045401 -0.24214,0.1967388 -0.136203,0.1362037 -0.348076,0.3934775 -0.196739,0.2572737 -0.514547,0.665885 -0.12107,0.1664713 -0.348077,0.48428 -0.211872,0.3178088 -0.559948,0.84749 -0.332943,0.5145476 -0.817223,1.2863688 -0.469146,0.7566881 -1.119897,1.8009159 0.908025,-0.514547 1.69498,-1.2409668 0.802088,-0.7415541 1.377171,-1.5133753 0.575082,-0.7718213 0.908025,-1.4982413 0.332943,-0.7264201 0.332943,-1.2258336 z"
            id="path3266"
            style="display:inline;fill:url(#radialGradient3297);stroke:url(#radialGradient3299)" />
         <path
            d="m 20.436906,14.741128 q -0.211873,0 -0.332943,-0.0908 -0.12107,-0.0908 -0.12107,-0.272408 0,-0.302675 0.36321,-0.892891 0.378344,-0.60535 0.908025,-1.422573 0.06053,-0.07567 0.0908,-0.105936 0.0454,-0.0454 0.0908,-0.07567 0.07567,-0.01513 0.196739,-0.03027 0.136204,-0.03027 0.166471,-0.03027 0.06053,0 0.06053,0.0454 -0.544815,0.953426 -0.923159,1.558776 -0.36321,0.590216 -0.36321,0.923159 0,0.181605 0.166472,0.181605 0.07567,0 0.196738,-0.0454 0.12107,-0.0454 0.257274,-0.12107 0.136204,-0.07567 0.257274,-0.151338 0.12107,-0.0908 0.181605,-0.166471 0.136204,-0.136204 0.393477,-0.635618 0.272408,-0.514547 0.650752,-1.195566 0.181605,-0.332943 0.332942,-0.559949 0.166471,-0.227006 0.272408,-0.227006 0.06054,0.03027 0.105936,0.151337 0.06053,0.12107 0.06053,0.24214 0,0.06054 -0.136204,0.287542 -0.136204,0.211872 -0.348076,0.514547 -0.211873,0.287541 -0.469146,0.620484 -0.24214,0.332943 -0.469147,0.620484 -0.544815,0.832356 -1.104763,1.710114 -0.544815,0.892891 -1.104764,1.710113 -0.559949,0.832357 -1.150165,1.558777 -0.590217,0.741553 -1.210701,1.286368 -0.635617,0.544815 -1.301502,0.862624 -0.681019,0.317809 -1.422573,0.317809 -0.438878,0 -0.786955,-0.211873 -0.348076,-0.211872 -0.348076,-0.741553 0,-0.12107 0.03027,-0.257274 0.01513,-0.12107 0.0454,-0.196739 0.01513,-0.0454 0.0454,-0.06053 0.03027,-0.01513 0.03027,0.0454 0,0.408612 0.302675,0.741554 0.302675,0.332943 1.074496,0.332943 0.620484,0 1.240968,-0.317809 0.60535,-0.302675 1.195566,-0.817223 0.575083,-0.514547 1.119899,-1.195566 0.544815,-0.681019 1.044228,-1.422572 0.514548,-0.741554 0.96856,-1.498242 0.454013,-0.741553 0.832357,-1.407438 0.03027,-0.06053 0,-0.0454 -0.03027,0.01513 -0.0454,0.03027 -0.166471,0.136204 -0.454012,0.302675 -0.287541,0.151337 -0.590216,0.151337 z"
            id="path3268"
            style="display:inline;fill:url(#radialGradient3301);stroke:url(#radialGradient3303)" />
         <path
            d="m 28.397253,12.955346 q -0.272407,0.378344 -0.635617,0.771821 -0.348077,0.378344 -0.756688,0.681019 -0.393477,0.302675 -0.817222,0.499414 -0.408612,0.196738 -0.802089,0.196738 -0.181605,0 -0.332943,-0.06053 -0.151337,-0.0454 -0.151337,-0.257273 0,-0.211873 0.151337,-0.529682 0.151338,-0.332942 0.348077,-0.696152 0.211872,-0.36321 0.423745,-0.741554 0.227006,-0.378344 0.36321,-0.696153 0.03027,-0.07567 0,-0.12107 -0.01513,-0.06053 -0.0908,-0.01513 -0.166471,0.105936 -0.393477,0.287541 -0.227007,0.181605 -0.469147,0.393477 -0.227006,0.196739 -0.454012,0.408612 -0.211873,0.211872 -0.348077,0.378344 -0.24214,0.378343 -0.423745,0.696152 -0.166471,0.317809 -0.423745,0.711286 -0.06053,0.0908 -0.0908,0.0908 -0.07567,0 -0.136204,-0.166471 -0.0454,-0.166472 -0.0454,-0.211873 0,-0.136204 0.181605,-0.36321 0.196739,-0.24214 0.423745,-0.529681 0.24214,-0.48428 0.499414,-1.013962 0.257273,-0.544815 0.438878,-0.96856 0.0454,-0.07567 0.136204,-0.07567 0.0908,0 0.166472,0.07567 0.07567,0.07567 0.07567,0.166472 0,0.06053 -0.227006,0.423745 -0.211873,0.348076 -0.423745,0.817222 0.287541,-0.257274 0.620484,-0.544815 0.348076,-0.287541 0.650751,-0.529681 0.317809,-0.24214 0.544815,-0.393478 0.24214,-0.166471 0.332943,-0.166471 0.06054,0 0.105936,0.07567 0.06054,0.06053 0.06054,0.12107 0,0.06053 -0.07567,0.181605 -0.166471,0.24214 -0.408611,0.620484 -0.24214,0.378343 -0.469146,0.786955 -0.211873,0.393477 -0.36321,0.756687 -0.151338,0.36321 -0.151338,0.575083 0,0.181605 0.07567,0.257274 0.07567,0.06053 0.24214,0.06053 0.257274,0 0.60535,-0.196739 0.348076,-0.196739 0.711286,-0.48428 0.378344,-0.302675 0.711286,-0.665885 0.332943,-0.36321 0.544815,-0.696153 0.03027,-0.0454 0.0908,-0.01513 0.06053,0.01513 -0.01513,0.105937 z"
            id="path3270"
            style="display:inline;fill:url(#radialGradient3305);stroke:url(#radialGradient3307)" />
         <path
            d="m 32.347152,12.955346 q -0.272408,0.378344 -0.635618,0.771821 -0.348076,0.378344 -0.756687,0.681019 -0.393478,0.302675 -0.817223,0.499414 -0.408611,0.196738 -0.802089,0.196738 -0.181605,0 -0.332942,-0.06053 -0.151338,-0.0454 -0.151338,-0.257273 0,-0.211873 0.151338,-0.529682 0.151337,-0.332942 0.348076,-0.696152 0.211873,-0.36321 0.423745,-0.741554 0.227007,-0.378344 0.36321,-0.696153 0.03027,-0.07567 0,-0.12107 -0.01513,-0.06053 -0.0908,-0.01513 -0.166472,0.105936 -0.393478,0.287541 -0.227006,0.181605 -0.469146,0.393477 -0.227006,0.196739 -0.454013,0.408612 -0.211872,0.211872 -0.348076,0.378344 -0.24214,0.378343 -0.423745,0.696152 -0.166471,0.317809 -0.423745,0.711286 -0.06054,0.0908 -0.0908,0.0908 -0.07567,0 -0.136204,-0.166471 -0.0454,-0.166472 -0.0454,-0.211873 0,-0.136204 0.181605,-0.36321 0.196738,-0.24214 0.423745,-0.529681 0.24214,-0.48428 0.499413,-1.013962 0.257274,-0.544815 0.438879,-0.96856 0.0454,-0.07567 0.136204,-0.07567 0.0908,0 0.166471,0.07567 0.07567,0.07567 0.07567,0.166472 0,0.06053 -0.227006,0.423745 -0.211873,0.348076 -0.423745,0.817222 0.287541,-0.257274 0.620483,-0.544815 0.348077,-0.287541 0.650752,-0.529681 0.317809,-0.24214 0.544815,-0.393478 0.24214,-0.166471 0.332942,-0.166471 0.06053,0 0.105937,0.07567 0.06053,0.06053 0.06053,0.12107 0,0.06053 -0.07567,0.181605 -0.166471,0.24214 -0.408611,0.620484 -0.24214,0.378343 -0.469147,0.786955 -0.211872,0.393477 -0.36321,0.756687 -0.151337,0.36321 -0.151337,0.575083 0,0.181605 0.07567,0.257274 0.07567,0.06053 0.24214,0.06053 0.257274,0 0.605351,-0.196739 0.348076,-0.196739 0.711286,-0.48428 0.378344,-0.302675 0.711286,-0.665885 0.332943,-0.36321 0.544815,-0.696153 0.03027,-0.0454 0.0908,-0.01513 0.06054,0.01513 -0.01513,0.105937 z"
            id="path3272"
            style="display:inline;fill:url(#radialGradient3309);stroke:url(#radialGradient3311)" />
         <path
            d="m 39.63431,10.439464 q -0.01513,0.938293 -0.438878,1.831184 -0.423745,0.892891 -1.119898,1.589044 -0.681019,0.696152 -1.589044,1.119897 -0.908025,0.423745 -1.891719,0.423745 -0.590216,0 -1.104763,-0.0908 -0.499414,-0.0908 -0.877758,-0.317809 -0.36321,-0.227006 -0.590216,-0.60535 -0.211873,-0.378344 -0.211873,-0.953426 0,-0.48428 0.166472,-1.013962 0.181605,-0.544815 0.454012,-1.059362 0.272408,-0.514548 0.620484,-0.96856 0.348076,-0.4540126 0.681019,-0.7566872 0.650751,-0.5902163 1.467973,-0.8626238 0.817223,-0.2724075 1.679847,-0.2724075 0.469146,0 0.953426,0.090803 0.499414,0.090803 0.892891,0.3178088 0.408612,0.2118725 0.665885,0.5902162 0.257274,0.3632109 0.24214,0.9382925 z m -0.756687,-0.105936 q 0,-0.4691456 -0.151338,-0.7869547 Q 38.574948,9.2136308 38.317674,9.016892 38.0604,8.8050195 37.69719,8.714217 37.33398,8.6082808 36.895101,8.6082808 q -0.802088,0 -1.437706,0.3178087 -0.635617,0.302675 -1.165299,0.9080249 -0.287541,0.3178086 -0.60535,0.7718206 -0.302675,0.454013 -0.559948,0.96856 -0.257274,0.514548 -0.423745,1.044229 -0.166472,0.514548 -0.166472,0.96856 0,0.48428 0.136204,0.817223 0.151338,0.317809 0.408611,0.514547 0.257274,0.181605 0.60535,0.272408 0.36321,0.07567 0.786955,0.07567 0.892892,0 1.679847,-0.469147 0.802088,-0.469146 1.407439,-1.180432 0.60535,-0.72642 0.953426,-1.589044 0.36321,-0.877758 0.36321,-1.69498 z"
            id="path3274"
            style="display:inline;fill:url(#radialGradient3289);stroke:url(#radialGradient3291)" />
         <path
            d="m 42.494934,10.694899 q 0.03027,-0.07567 0.0454,-0.227006 0.03027,-0.166472 0.03027,-0.287542 0,-0.2270059 -0.07567,-0.4691459 -0.07567,-0.24214 -0.287542,-0.4388787 -0.196738,-0.1967388 -0.544815,-0.3178088 -0.332942,-0.12107 -0.877757,-0.12107 -0.438879,0 -0.817223,0.181605 -0.378343,0.1664713 -0.711286,0.4086113 -0.378344,0.2724075 -0.862624,0.8020891 -0.469146,0.529681 -0.892891,1.195566 -0.423745,0.650751 -0.711286,1.392305 -0.272408,0.72642 -0.272408,1.422573 0,0.378343 0.136204,0.620483 0.136204,0.24214 0.348076,0.378344 0.227006,0.136204 0.514548,0.196739 0.287541,0.0454 0.590216,0.0454 1.271235,0 2.315464,-0.665885 1.044229,-0.681019 1.982521,-1.967388 0.0454,-0.06053 0.07567,-0.06053 0.06054,0 0.06054,0.211873 0,0.12107 -0.0454,0.211872 -0.03027,0.07567 -0.07567,0.151338 -0.696153,1.044229 -1.846318,1.649579 -1.135031,0.590216 -2.497069,0.590216 -0.438878,0 -0.84749,-0.0908 -0.393477,-0.07567 -0.711286,-0.272408 -0.302675,-0.211872 -0.48428,-0.544815 -0.181605,-0.348076 -0.181605,-0.862624 0,-0.575082 0.211873,-1.180432 0.227006,-0.60535 0.575082,-1.165299 0.348076,-0.559949 0.771821,-1.044229 0.438879,-0.4842799 0.877758,-0.8172224 0.544815,-0.423745 1.2107,-0.665885 0.665885,-0.2572737 1.392305,-0.2572737 0.544815,0 1.104764,0.12107 0.575082,0.1059362 1.059362,0.3934775 0.12107,0.060535 0.12107,0.181605 -0.105936,0.181605 -0.272407,0.5750825 -0.166471,0.3783441 -0.272408,0.6810191 z"
            id="path3276"
            style="display:inline;fill:url(#radialGradient3313);stroke:url(#radialGradient3315)" />
         <path
            d="m 47.761471,12.874159 q -0.257274,0.348076 -0.635617,0.635617 -0.36321,0.272408 -0.832357,0.272408 -0.257273,0 -0.514547,-0.12107 -0.24214,-0.136204 -0.393478,-0.393478 -0.105936,0.24214 -0.272407,0.559949 -0.166471,0.302675 -0.393478,0.620484 -0.227006,0.302675 -0.514547,0.559949 -0.272408,0.257274 -0.590216,0.423745 -0.272408,0.12107 -0.454013,0.12107 -0.544815,0 -0.544815,-0.48428 0,-0.272408 0.0908,-0.559949 0.105936,-0.287541 0.257273,-0.559949 0.151338,-0.272407 0.317809,-0.514547 0.181605,-0.24214 0.332943,-0.393478 0.317808,-0.348076 0.72642,-0.590216 0.408611,-0.24214 0.877757,-0.287541 0.03027,-0.12107 0.0908,-0.272408 0.06054,-0.166471 0.211872,-0.196739 0.07567,-0.01513 0.151338,-0.03027 0.07567,-0.01513 0.136203,-0.0454 0.0454,-0.03027 0.0908,0 0.0454,0.01513 0.01513,0.07567 -0.105937,0.166472 -0.166472,0.423745 -0.0454,0.257274 -0.0454,0.559949 0,0.423745 0.151338,0.696153 0.166471,0.272407 0.559948,0.272407 0.393478,0 0.711287,-0.257274 0.317808,-0.257273 0.529681,-0.559948 0.03027,-0.07567 0.0908,-0.0454 0.07567,0.03027 0.01513,0.0908 z m -2.497069,0.105936 q -0.03027,-0.136204 -0.0454,-0.317809 -0.01513,-0.181605 -0.01513,-0.348076 0,-0.07567 -0.06054,-0.07567 -0.166471,0 -0.348076,0.12107 -0.181605,0.105937 -0.36321,0.302675 -0.181605,0.181605 -0.36321,0.423745 -0.181605,0.24214 -0.332942,0.499414 -0.196739,0.332943 -0.36321,0.72642 -0.151338,0.378344 -0.136204,0.72642 0,0.105937 0.03027,0.196739 0.0454,0.0908 0.181605,0.0908 0.257274,0 0.559949,-0.287542 0.302675,-0.287541 0.575083,-0.665885 0.272407,-0.393477 0.454012,-0.786955 0.196739,-0.393477 0.227006,-0.60535 z"
            id="path3278"
            style="display:inline;fill:url(#radialGradient3317);stroke:url(#radialGradient3319)" />
         <path
            d="m 51.272492,13.494643 q -0.272408,0.378344 -0.635618,0.771821 -0.348076,0.378344 -0.756687,0.681019 -0.393478,0.302675 -0.817223,0.499414 -0.408611,0.196738 -0.802088,0.196738 -0.181605,0 -0.332943,-0.06053 -0.151338,-0.0454 -0.151338,-0.257273 0,-0.211873 0.151338,-0.529682 0.151338,-0.332942 0.348076,-0.696152 0.211873,-0.36321 0.423745,-0.741554 0.227007,-0.378344 0.36321,-0.696153 0.03027,-0.07567 0,-0.12107 -0.01513,-0.06053 -0.0908,-0.01513 -0.166471,0.105936 -0.393478,0.287541 -0.227006,0.181605 -0.469146,0.393477 -0.227006,0.196739 -0.454013,0.408612 -0.211872,0.211872 -0.348076,0.378344 -0.24214,0.378343 -0.423745,0.696152 -0.166471,0.317809 -0.423745,0.711286 -0.06053,0.0908 -0.0908,0.0908 -0.07567,0 -0.136204,-0.166471 -0.0454,-0.166472 -0.0454,-0.211873 0,-0.136204 0.181605,-0.36321 0.196738,-0.24214 0.423745,-0.529681 0.24214,-0.48428 0.499413,-1.013962 0.257274,-0.544815 0.438879,-0.96856 0.0454,-0.07567 0.136204,-0.07567 0.0908,0 0.166471,0.07567 0.07567,0.07567 0.07567,0.166472 0,0.06053 -0.227006,0.423745 -0.211873,0.348076 -0.423745,0.817222 0.287541,-0.257274 0.620484,-0.544815 0.348076,-0.287541 0.650751,-0.529681 0.317809,-0.24214 0.544815,-0.393478 0.24214,-0.166471 0.332942,-0.166471 0.06054,0 0.105937,0.07567 0.06054,0.06053 0.06054,0.12107 0,0.06053 -0.07567,0.181605 -0.166471,0.24214 -0.408611,0.620484 -0.24214,0.378343 -0.469147,0.786955 -0.211872,0.393477 -0.36321,0.756687 -0.151337,0.36321 -0.151337,0.575083 0,0.181605 0.07567,0.257274 0.07567,0.06053 0.24214,0.06053 0.257273,0 0.60535,-0.196739 0.348076,-0.196739 0.711286,-0.48428 0.378344,-0.302675 0.711286,-0.665885 0.332943,-0.36321 0.544815,-0.696153 0.03027,-0.0454 0.0908,-0.01513 0.06053,0.01513 -0.01513,0.105937 z"
            id="path3280"
            style="display:inline;fill:url(#radialGradient3321);stroke:url(#radialGradient3323)" />
         <path
            d="m 55.22239,13.494643 q -0.272408,0.378344 -0.635618,0.771821 -0.348076,0.378344 -0.756687,0.681019 -0.393478,0.302675 -0.817223,0.499414 -0.408611,0.196738 -0.802089,0.196738 -0.181605,0 -0.332942,-0.06053 -0.151338,-0.0454 -0.151338,-0.257273 0,-0.211873 0.151338,-0.529682 0.151337,-0.332942 0.348076,-0.696152 0.211873,-0.36321 0.423745,-0.741554 0.227006,-0.378344 0.36321,-0.696153 0.03027,-0.07567 0,-0.12107 -0.01513,-0.06053 -0.0908,-0.01513 -0.166472,0.105936 -0.393478,0.287541 -0.227006,0.181605 -0.469146,0.393477 -0.227006,0.196739 -0.454013,0.408612 -0.211872,0.211872 -0.348076,0.378344 -0.24214,0.378343 -0.423745,0.696152 -0.166471,0.317809 -0.423745,0.711286 -0.06054,0.0908 -0.0908,0.0908 -0.07567,0 -0.136203,-0.166471 -0.0454,-0.166472 -0.0454,-0.211873 0,-0.136204 0.181605,-0.36321 0.196739,-0.24214 0.423745,-0.529681 0.24214,-0.48428 0.499414,-1.013962 0.257274,-0.544815 0.438879,-0.96856 0.0454,-0.07567 0.136204,-0.07567 0.0908,0 0.166471,0.07567 0.07567,0.07567 0.07567,0.166472 0,0.06053 -0.227006,0.423745 -0.211873,0.348076 -0.423745,0.817222 0.287541,-0.257274 0.620483,-0.544815 0.348077,-0.287541 0.650752,-0.529681 0.317808,-0.24214 0.544815,-0.393478 0.24214,-0.166471 0.332942,-0.166471 0.06054,0 0.105936,0.07567 0.06054,0.06053 0.06054,0.12107 0,0.06053 -0.07567,0.181605 -0.166472,0.24214 -0.408612,0.620484 -0.24214,0.378343 -0.469146,0.786955 -0.211872,0.393477 -0.36321,0.756687 -0.151337,0.36321 -0.151337,0.575083 0,0.181605 0.07567,0.257274 0.07567,0.06053 0.24214,0.06053 0.257274,0 0.60535,-0.196739 0.348077,-0.196739 0.711287,-0.48428 0.378343,-0.302675 0.711286,-0.665885 0.332942,-0.36321 0.544815,-0.696153 0.03027,-0.0454 0.0908,-0.01513 0.06053,0.01513 -0.01513,0.105937 z"
            id="path3282"
            style="display:inline;fill:url(#radialGradient3325);stroke:url(#radialGradient3327)" />
         <path
            d="m 58.233995,13.64598 q -0.257274,0.317809 -0.620484,0.665885 -0.348076,0.332943 -0.771821,0.620484 -0.408611,0.272408 -0.862624,0.454013 -0.438879,0.166471 -0.877757,0.166471 -0.711287,0 -0.711287,-0.635618 0,-0.423745 0.211873,-0.908025 0.227006,-0.499414 0.575082,-0.908025 0.348077,-0.423745 0.756688,-0.696152 0.423745,-0.287542 0.802089,-0.287542 0.211872,0 0.287541,0.07567 0.0908,0.07567 0.0908,0.196739 0,0.181605 -0.12107,0.393477 -0.105936,0.211873 -0.332942,0.408612 -0.227006,0.181605 -0.575083,0.317808 -0.348076,0.121071 -0.832356,0.121071 -0.07567,0.136203 -0.166471,0.438878 -0.0908,0.287542 -0.0908,0.590217 0,0.620483 0.559949,0.620483 0.348076,0 0.711286,-0.166471 0.378344,-0.166471 0.72642,-0.408611 0.348077,-0.257274 0.635618,-0.544815 0.302675,-0.302675 0.499414,-0.559949 0.03027,-0.03027 0.06054,-0.01513 0.0454,0.01513 0.0454,0.06053 z m -1.589044,-1.180432 q 0,-0.196739 -0.196739,-0.196739 -0.151337,0 -0.317808,0.12107 -0.151338,0.105936 -0.302675,0.287541 -0.151338,0.181605 -0.287542,0.393478 -0.136203,0.211872 -0.227006,0.408611 0.03027,0.01513 0.105936,0.03027 0.07567,0 0.12107,0 0.438879,0 0.771822,-0.302675 0.332942,-0.317808 0.332942,-0.741553 z"
            id="path3284"
            style="display:inline;fill:url(#radialGradient3329);stroke:url(#radialGradient3331)" />
         <path
            d="m 66.451616,7.4714101 q 0,0.36321 -0.423745,1.1047638 -0.408612,0.7415537 -1.119898,1.6798461 -0.696152,0.923159 -1.634445,1.921986 -0.938292,0.998828 -1.982521,1.891719 -0.105936,0.378344 -0.105936,0.786955 0,0.438879 0.211872,0.635618 0.211873,0.211872 0.590216,0.211872 0.423745,0 0.862624,-0.227006 0.454013,-0.211872 0.862624,-0.544815 0.408611,-0.332942 0.756687,-0.696152 0.348077,-0.378344 0.590217,-0.665886 0.0454,-0.0454 0.06054,-0.01513 0.01513,0.03027 0,0.105936 -0.317809,0.408611 -0.72642,0.817223 -0.408612,0.408611 -0.892892,0.741553 -0.469146,0.332943 -0.983693,0.544815 -0.514548,0.211873 -1.044229,0.211873 -0.938293,0 -0.938293,-0.908025 0,-0.211873 0.0454,-0.48428 -0.181605,0.12107 -0.438879,0.287541 -0.257274,0.166471 -0.559949,0.317809 -0.287541,0.136204 -0.620484,0.24214 -0.332942,0.105936 -0.665885,0.105936 -0.348076,0 -0.454012,-0.211872 -0.0908,-0.227007 -0.0908,-0.48428 0,-0.332943 0.166471,-0.84749 0.181605,-0.514548 0.469147,-1.104764 0.287541,-0.60535 0.665885,-1.256102 0.378343,-0.650751 0.786955,-1.240967 0.423745,-0.6053501 0.832356,-1.1198976 0.408611,-0.5296813 0.771821,-0.8777576 0.348077,-0.3480762 0.817223,-0.60535 0.469146,-0.2572737 0.953426,-0.2572737 0.393478,0 0.635618,0.1362037 0.24214,0.1362038 0.24214,0.3178088 0,0.015134 -0.03027,0.1059362 -0.01513,0.075669 -0.06054,0.181605 -0.03027,0.1059363 -0.07567,0.2270063 -0.03027,0.1059363 -0.07567,0.1967388 0.227006,-0.2724076 0.499413,-0.5599488 0.272408,-0.302675 0.544815,-0.544815 0.287542,-0.2572738 0.575083,-0.423745 0.287541,-0.1664713 0.544815,-0.1664713 0.438879,0 0.438879,0.4691463 z m -0.469147,0.3178087 q 0,-0.1513375 -0.06054,-0.2875412 -0.06053,-0.1513375 -0.272407,-0.1513375 -0.317809,0 -0.908025,0.5599487 -0.590216,0.5448151 -1.240968,1.4528401 -0.650751,0.9080251 -1.240967,2.0884571 -0.590216,1.180433 -0.938293,2.451668 0.393478,-0.317809 0.892892,-0.802089 0.499413,-0.48428 1.013961,-1.044229 0.514547,-0.575082 1.013961,-1.180432 0.499414,-0.60535 0.877758,-1.1804326 0.393477,-0.5750825 0.620483,-1.0744963 0.24214,-0.4994138 0.24214,-0.8323563 z m -2.148992,0.7264201 q 0,-0.2270063 -0.211873,-0.4842801 -0.196738,-0.2724075 -0.681018,-0.2724075 -0.332943,0 -0.756688,0.181605 -0.408611,0.181605 -0.938292,0.8626238 -0.227007,0.302675 -0.529682,0.7566875 -0.302675,0.4540124 -0.620484,0.9988274 -0.317808,0.544815 -0.620483,1.135031 -0.302675,0.575083 -0.544815,1.135032 -0.227007,0.544815 -0.378344,1.029095 -0.136204,0.469146 -0.136204,0.786955 0,0.514547 0.469146,0.514547 0.393478,0 0.832357,-0.196738 0.438878,-0.211873 0.908025,-0.544815 0.06054,-0.332943 0.287541,-0.923159 0.24214,-0.590217 0.635618,-1.346904 0.408611,-0.756688 0.953426,-1.619311 0.559949,-0.8626241 1.271235,-1.7403816 0.03027,-0.075669 0.0454,-0.1513375 0.01513,-0.090803 0.01513,-0.12107 z"
            id="path3286"
            style="display:inline;fill:url(#radialGradient3333);stroke:url(#radialGradient3335)" />
      </g>
   </g>
</svg>