<svg width="180" height="180" viewBox="0 0 180 180" fill="none" xmlns="http://www.w3.org/2000/svg">
<path d="M89.687 40.2732L92.3556 45.2853C92.9555 46.2103 93.6055 47.0289 94.371 47.7914C96.6155 50.0079 98.7076 52.3735 100.633 54.8721C105.155 60.8092 108.204 67.4024 110.382 74.5331C111.689 78.8891 112.398 83.3575 112.451 87.8759C112.67 101.384 108.039 112.983 98.702 122.623C97.1832 124.152 95.5425 125.554 93.7961 126.817C92.8712 126.817 92.4337 126.107 92.0525 125.454C91.3582 124.243 90.8962 122.913 90.6901 121.533C90.362 119.898 90.1463 118.264 90.2526 116.577V115.814C90.1776 115.652 89.362 40.6575 89.687 40.2732Z" fill="#599636"/>
<path d="M89.687 40.1075C89.5776 39.8888 89.4683 40.0544 89.3589 40.1606C89.412 41.2543 89.0308 42.2292 88.434 43.1604C87.7778 44.0853 86.9091 44.7947 86.0373 45.5571C81.1939 49.7505 77.3817 54.8158 74.3288 60.481C70.2665 68.1054 68.1729 76.2767 67.5792 84.8792C67.3074 87.9821 68.5604 98.9313 69.5385 102.09C72.207 110.477 77.0004 117.505 83.2094 123.604C84.7342 125.073 86.3654 126.436 88.0528 127.745C88.5433 127.745 88.5965 127.307 88.709 126.982C88.924 126.287 89.088 125.577 89.1995 124.857L90.2932 116.689L89.687 40.1075Z" fill="#6CAC48"/>
<path d="M92.3556 130.135C92.4649 128.885 93.0649 127.848 93.718 126.814C93.0618 126.542 92.5743 126.001 92.1931 125.398C91.8643 124.827 91.5922 124.225 91.3806 123.601C90.6182 121.314 90.4557 118.914 90.237 116.577V115.161C89.9651 115.38 89.9089 117.23 89.9089 117.505C89.7498 119.975 89.422 122.432 88.9277 124.857C88.7652 125.839 88.6558 126.817 88.0527 127.689C88.0527 127.798 88.0527 127.907 88.1059 128.07C89.087 130.957 89.3558 133.897 89.5214 136.894V137.988C89.5214 139.294 89.4683 139.019 90.5526 139.456C90.99 139.619 91.4775 139.675 91.915 140C92.2431 140 92.2962 139.728 92.2962 139.509L92.1337 137.713V132.701C92.0806 131.826 92.2431 130.957 92.3524 130.138L92.3556 130.135Z" fill="#C2BFBF"/>
</svg>
