<svg width="180" height="180" viewBox="0 0 180 180" fill="none" xmlns="http://www.w3.org/2000/svg">
<path d="M132.11 117.245C126.67 117.108 122.453 117.66 118.916 119.179C117.896 119.592 116.263 119.593 116.127 120.905C116.671 121.457 116.739 122.355 117.216 123.114C118.033 124.494 119.46 126.359 120.752 127.326C122.18 128.43 123.609 129.534 125.105 130.501C127.757 132.158 130.75 133.124 133.335 134.781C134.832 135.747 136.327 136.991 137.823 138.026C138.572 138.578 139.047 139.476 140 139.821V139.614C139.523 138.992 139.387 138.095 138.912 137.405C138.232 136.714 137.551 136.093 136.871 135.402C134.899 132.71 132.451 130.363 129.798 128.43C127.622 126.911 122.86 124.84 121.977 122.285C121.977 122.285 121.908 122.217 121.841 122.148C123.337 122.009 125.105 121.457 126.534 121.043C128.846 120.421 130.954 120.559 133.335 119.938C134.423 119.662 135.511 119.317 136.599 118.971V118.35C135.375 117.108 134.491 115.451 133.199 114.277C129.73 111.239 125.921 108.27 121.977 105.785C119.868 104.404 117.147 103.507 114.903 102.333C114.087 101.919 112.727 101.712 112.251 101.021C111.026 99.5028 110.346 97.5009 109.462 95.7057C107.49 91.9082 105.585 87.6972 103.885 83.6933C102.661 81.0005 101.913 78.3077 100.416 75.8229C93.4111 64.0863 85.7936 56.9753 74.0957 50.0021C71.5789 48.5525 68.5864 47.9311 65.3898 47.172C63.6901 47.1026 61.9892 46.9649 60.2891 46.8954C59.2008 46.4121 58.1124 45.1006 57.1602 44.4792C53.2842 41.9936 43.2856 36.6092 40.4291 43.7201C38.5925 48.2073 43.1499 52.6254 44.7136 54.9044C45.8707 56.492 47.3664 58.2868 48.1826 60.082C48.6588 61.255 48.7944 62.4986 49.2706 63.741C50.3593 66.7779 51.3788 70.1615 52.8076 72.9924C53.5559 74.442 54.3717 75.9606 55.324 77.2724C55.8682 78.0316 56.8201 78.3772 57.0245 79.6196C56.0726 81.0005 56.0042 83.0719 55.4596 84.7977C53.0113 92.599 53.964 102.264 57.4322 107.994C58.5202 109.72 61.1049 113.518 64.5736 112.068C67.6345 110.825 66.9543 106.89 67.8378 103.438C68.0426 102.609 67.9066 102.057 68.3143 101.505V101.643C69.2666 103.576 70.2185 105.44 71.1028 107.373C73.2114 110.756 76.8837 114.277 79.9442 116.625C81.5771 117.867 82.8691 120.007 84.9097 120.767V120.559H84.7733C84.3652 119.938 83.753 119.662 83.2092 119.178C81.9852 117.936 80.6245 116.417 79.6726 115.036C76.8165 111.17 74.2993 106.89 72.0551 102.471C70.9671 100.331 70.0144 97.9838 69.1306 95.8438C68.7221 95.0145 68.7221 93.7724 68.0422 93.3586C67.0219 94.8772 65.5259 96.189 64.7777 98.0529C63.486 101.021 63.3496 104.68 62.8735 108.477C62.6014 108.547 62.737 108.477 62.601 108.616C60.4251 108.063 59.6769 105.785 58.8603 103.852C56.8197 98.9505 56.4796 91.08 58.2485 85.4191C58.7246 83.9691 60.7652 79.4129 59.949 78.0319C59.5409 76.7201 58.1801 75.9606 57.4322 74.9253C56.5484 73.6134 55.5957 71.9571 54.9839 70.5067C53.3514 66.6406 52.5352 62.3601 50.767 58.4939C49.9508 56.6987 48.5231 54.8353 47.3664 53.1782C46.0744 51.3144 44.646 50.0021 43.6257 47.793C43.2859 47.0339 42.8094 45.7911 43.3536 44.9625C43.4896 44.4102 43.7613 44.2034 44.3059 44.0653C45.1901 43.3054 47.7069 44.2721 48.5904 44.6864C51.1071 45.7212 53.2154 46.6887 55.324 48.1382C56.2759 48.8287 57.2962 50.1406 58.5202 50.4858H59.9486C62.1252 50.9687 64.5732 50.6239 66.6138 51.2449C70.2189 52.4183 73.4831 54.1444 76.408 56.0087C85.3179 61.7387 92.6625 69.8853 97.628 79.6196C98.4442 81.2069 98.7839 82.6576 99.5322 84.3139C100.961 87.6972 102.729 91.1491 104.157 94.4629C105.585 97.7073 106.945 101.021 108.986 103.714C110.006 105.163 114.087 105.923 115.923 106.683C117.284 107.304 119.392 107.857 120.616 108.616C122.928 110.065 125.241 111.723 127.417 113.31C128.506 114.139 131.906 115.865 132.11 117.245Z" fill="#00546B"/>
<path d="M62.7367 57.2507C61.5807 57.2507 60.7649 57.3896 59.9486 57.5964V57.7345H60.0846C60.6292 58.8392 61.5807 59.5987 62.2605 60.5649C62.8051 61.6693 63.2808 62.7744 63.8254 63.8791C63.893 63.8097 63.961 63.741 63.961 63.741C64.9137 63.0502 65.3894 61.9459 65.3894 60.2888C64.9813 59.8058 64.9133 59.3225 64.5732 58.8392C64.1655 58.1483 63.2808 57.8035 62.7367 57.2507Z" fill="#00546B"/>
</svg>
