<svg width="180" height="180" viewBox="0 0 180 180" fill="none" xmlns="http://www.w3.org/2000/svg">
<path d="M138.108 99.9022C137.526 98.1365 136.003 96.9067 134.034 96.6116C133.105 96.4726 132.042 96.5319 130.783 96.792C128.589 97.2459 126.962 97.4187 125.774 97.4521C130.257 89.8619 133.903 81.2063 136.002 73.0585C139.395 59.8837 137.582 53.8818 135.463 51.167C129.854 43.9812 121.672 40.121 111.801 40.0029C106.536 39.9383 101.913 40.9808 99.5015 41.7306C97.2563 41.3333 94.8421 41.1115 92.309 41.0705C87.5607 40.9945 83.3652 42.0325 79.7804 44.1658C77.7957 43.4928 74.6105 42.5441 70.932 41.9387C62.2806 40.5144 55.3079 41.6242 50.2076 45.2372C44.0317 49.6117 41.1688 57.2122 41.6983 67.8276C41.8664 71.1979 43.7465 81.4524 46.7068 91.1775C48.4082 96.7673 50.2224 101.409 52.0991 104.976C54.7606 110.032 57.6084 113.01 60.8054 114.08C62.5973 114.679 65.853 115.098 69.2773 112.238C69.7113 112.765 70.2904 113.289 71.0589 113.775C72.035 114.393 73.2284 114.897 74.4203 115.196C78.7157 116.273 82.7392 116.003 86.1718 114.494C86.193 115.106 86.2093 115.691 86.2229 116.196C86.2456 117.015 86.2684 117.819 86.2983 118.57C86.5017 123.649 86.8463 127.599 87.8674 130.362C87.9235 130.514 87.9989 130.746 88.0784 130.992C88.5878 132.556 89.4396 135.174 91.6068 137.224C93.8509 139.349 96.5654 140 99.0515 140C100.298 140 101.488 139.836 102.531 139.612C106.251 138.812 110.475 137.595 113.531 133.232C116.42 129.107 117.824 122.895 118.078 113.106C118.111 112.829 118.142 112.565 118.171 112.313L118.231 111.796L118.912 111.856L119.087 111.868C122.876 112.041 127.508 111.235 130.353 109.91C132.6 108.864 139.804 105.051 138.108 99.9022Z" fill="black"/>
<path d="M131.631 100.903C120.367 103.233 119.592 99.4092 119.592 99.4092C131.485 81.7133 136.457 59.2509 132.166 53.7533C120.462 38.757 100.2 45.8494 99.8621 46.0332L99.7534 46.0529C97.5279 45.5896 95.0376 45.3138 92.2383 45.2679C87.1418 45.1843 83.2755 46.6078 80.3417 48.8387C80.3417 48.8387 44.1976 33.9074 45.8789 67.6175C46.2364 74.7888 56.1294 121.88 67.929 107.656C72.2418 102.455 76.4092 98.0575 76.4092 98.0575C78.4787 99.4361 80.9565 100.14 83.5539 99.887L83.7558 99.7153C83.6929 100.361 83.7217 100.993 83.8365 101.74C80.7966 105.146 81.6901 105.744 75.6134 106.998C69.4644 108.269 73.0766 110.531 75.435 111.123C78.2942 111.84 84.9087 112.855 89.378 106.581L89.2 107.297C90.3907 108.254 91.227 113.519 91.0869 118.293C90.9467 123.066 90.8532 126.344 91.7914 128.903C92.7303 131.463 93.6654 137.223 101.654 135.507C108.329 134.072 111.788 130.355 112.269 124.154C112.61 119.747 113.384 120.398 113.432 116.457L114.052 114.592C114.767 108.616 114.166 106.688 118.278 107.585L119.278 107.673C122.304 107.811 126.266 107.185 128.591 106.101C133.597 103.772 136.566 99.8813 131.63 100.903H131.631Z" fill="#336791"/>
<path d="M82.4574 70.8247C81.4424 70.683 80.5232 70.8141 80.0581 71.1673C79.7967 71.3659 79.7157 71.5961 79.6937 71.7544C79.6354 72.1741 79.9285 72.6382 80.1088 72.8775C80.6186 73.555 81.3632 74.0207 82.1003 74.1232C82.2071 74.1384 82.3135 74.1452 82.4192 74.1452C83.6482 74.1452 84.7659 73.1855 84.8644 72.4772C84.9875 71.59 83.7032 70.9986 82.4574 70.8251V70.8247ZM116.084 70.8528C115.987 70.1574 114.753 69.9591 113.582 70.1225C112.413 70.2858 111.279 70.8152 111.373 71.5121C111.449 72.0541 112.425 72.9793 113.58 72.9793C113.678 72.9793 113.777 72.9728 113.876 72.9588C114.647 72.8517 115.213 72.3606 115.482 72.0776C115.891 71.6462 116.128 71.1654 116.084 70.8528" fill="white"/>
<path d="M135.379 100.639C134.949 99.3365 133.567 98.9176 131.27 99.3931C124.451 100.804 122.009 99.8268 121.207 99.2347C126.507 91.1374 130.868 81.3493 133.22 72.217C134.335 67.8911 134.95 63.8736 135 60.599C135.056 57.005 134.446 54.3639 133.187 52.7505C128.111 46.2464 120.661 42.7576 111.642 42.6619C105.443 42.592 100.205 44.183 99.1892 44.6304C97.0507 44.0972 94.7195 43.7698 92.1815 43.728C87.5274 43.6524 83.5044 44.7698 80.1736 47.0474C78.7268 46.5074 74.9878 45.2202 70.4151 44.4815C62.5098 43.2054 56.2279 44.1724 51.745 47.357C46.3959 51.1572 43.9265 57.9503 44.4048 67.547C44.5658 70.7757 46.4005 80.7082 49.2956 90.2202C53.1066 102.74 57.2494 109.827 61.608 111.285C62.1182 111.456 62.7064 111.575 63.3552 111.575C64.9452 111.575 66.8946 110.857 68.9228 108.411C71.3967 105.435 73.9557 102.532 76.5967 99.7041C78.3102 100.626 80.1926 101.141 82.1178 101.193C82.1215 101.243 82.1265 101.294 82.131 101.344C81.7996 101.74 81.4751 102.142 81.1576 102.55C79.8237 104.248 79.546 104.602 75.2521 105.488C74.0307 105.741 70.7867 106.411 70.739 108.692C70.6874 111.183 74.5738 112.229 75.0166 112.34C76.5596 112.728 78.0462 112.919 79.4638 112.919C82.9116 112.919 85.9458 111.782 88.3705 109.584C88.2959 118.466 88.6652 127.218 89.7287 129.884C90.5999 132.067 92.7277 137.402 99.449 137.402C100.435 137.402 101.521 137.287 102.715 137.03C109.73 135.522 112.776 132.413 113.954 125.559C114.585 121.896 115.667 113.149 116.176 108.457C117.25 108.793 118.633 108.947 120.128 108.947C123.246 108.947 126.844 108.282 129.1 107.232C131.634 106.052 136.208 103.155 135.379 100.639V100.639ZM118.674 68.9333C118.651 70.3184 118.46 71.5759 118.259 72.8885C118.042 74.3002 117.818 75.7598 117.761 77.5315C117.706 79.2558 117.92 81.0485 118.128 82.7822C118.547 86.284 118.978 89.889 117.311 93.4462C117.034 92.9542 116.788 92.4457 116.573 91.9236C116.366 91.42 115.916 90.611 115.293 89.4914C112.869 85.1328 107.193 74.9261 110.099 70.7612C110.964 69.5216 113.161 68.247 118.674 68.9333V68.9333ZM111.991 45.4667C120.071 45.6456 126.463 48.6768 130.988 54.4755C134.459 58.9233 130.637 79.1616 119.573 96.6213C119.461 96.4794 119.35 96.338 119.237 96.1971L119.097 96.0216C121.956 91.2867 121.397 86.6019 120.9 82.4484C120.695 80.7439 120.502 79.1339 120.551 77.6215C120.602 76.0188 120.813 74.6439 121.018 73.3146C121.269 71.6766 121.524 69.9815 121.454 67.9834C121.507 67.7738 121.528 67.5261 121.5 67.2322C121.32 65.3161 119.139 59.5815 114.692 54.3912C112.26 51.5522 108.713 48.3752 103.87 46.2324C105.953 45.7994 108.801 45.3957 111.991 45.4667V45.4667ZM66.7765 106.622C64.5418 109.316 62.9988 108.8 62.4913 108.63C59.1848 107.524 55.3481 100.516 51.9654 89.4032C49.0384 79.7875 47.328 70.1182 47.1924 67.4069C46.7652 58.8318 48.8381 52.8557 53.3539 49.6441C60.7032 44.4181 72.7861 47.5461 77.6413 49.1325C77.5716 49.2016 77.4989 49.2662 77.43 49.3365C69.4626 57.4049 69.6516 71.19 69.6713 72.0328C69.6705 72.3579 69.6978 72.8182 69.7349 73.4514C69.872 75.77 70.1273 80.0853 69.4455 84.9721C68.8123 89.5134 70.2083 93.9582 73.2751 97.1671C73.5898 97.4958 73.9206 97.8086 74.2663 98.1044C72.9012 99.5704 69.9345 102.812 66.7765 106.622V106.622ZM75.2904 95.2305C72.8187 92.6441 71.6961 89.0466 72.21 85.3595C72.9296 80.1973 72.6641 75.7013 72.5214 73.2858C72.5013 72.9477 72.4835 72.6515 72.4733 72.4179C73.6372 71.383 79.0309 68.4851 82.8775 69.3689C84.6327 69.7719 85.7022 70.9705 86.1469 73.0321C88.4482 83.7055 86.4514 88.1541 84.847 91.7291C84.5164 92.4656 84.2039 93.1617 83.9373 93.8818L83.7305 94.4386C83.207 95.8461 82.72 97.1549 82.4181 98.3976C79.7903 98.39 77.2341 97.2643 75.2904 95.2301V95.2305ZM75.6938 109.625C74.9264 109.433 74.2363 109.099 73.8315 108.822C74.1697 108.662 74.7715 108.445 75.8153 108.229C80.8667 107.187 81.647 106.451 83.3506 104.282C83.7411 103.784 84.1838 103.221 84.797 102.534L84.7978 102.533C85.711 101.508 86.1287 101.682 86.8862 101.997C87.5002 102.251 88.0982 103.023 88.3406 103.872C88.4554 104.273 88.5842 105.035 88.1626 105.627C84.6039 110.624 79.418 110.56 75.6938 109.625V109.625ZM102.13 134.293C95.9505 135.621 93.7624 132.459 92.3205 128.845C91.3899 126.511 90.9324 115.989 91.257 104.368C91.2612 104.213 91.2392 104.064 91.1968 103.924C91.1588 103.646 91.1011 103.372 91.0241 103.103C90.5415 101.412 89.3655 99.9973 87.9547 99.4109C87.3941 99.1781 86.3654 98.7508 85.1292 99.068C85.3928 97.9787 85.85 96.7485 86.3457 95.4166L86.5537 94.8564C86.7877 94.2248 87.0817 93.5704 87.3922 92.8776C89.0712 89.1374 91.3706 84.0143 88.875 72.4407C87.9403 68.1057 84.8186 65.9887 80.0865 66.4805C77.2497 66.7749 74.6541 67.9226 73.3595 68.5808C73.0811 68.7221 72.8266 68.8588 72.5888 68.9918C72.9501 64.6241 74.3151 56.4615 79.4214 51.297C82.6366 48.0459 86.9184 46.4401 92.1353 46.5267C102.415 46.6954 109.006 51.9852 112.726 56.3935C115.932 60.1919 117.668 64.0183 118.361 66.0821C113.151 65.5508 109.608 66.582 107.812 69.157C103.904 74.7582 109.949 85.6296 112.855 90.8545C113.388 91.8119 113.848 92.6395 113.992 92.9912C114.938 95.2905 116.163 96.8256 117.057 97.946C117.332 98.2894 117.598 98.6225 117.8 98.9134C116.222 99.3695 113.388 100.423 113.646 105.692C113.438 108.335 111.956 120.711 111.204 125.084C110.21 130.86 108.091 133.012 102.13 134.294V134.293ZM127.925 104.694C126.311 105.444 123.611 106.008 121.046 106.129C118.213 106.262 116.771 105.811 116.431 105.533C116.272 102.25 117.491 101.907 118.78 101.544C118.983 101.487 119.181 101.431 119.372 101.364C119.49 101.461 119.62 101.557 119.763 101.651C122.04 103.158 126.101 103.321 131.835 102.134L131.898 102.122C131.124 102.847 129.801 103.82 127.925 104.694Z" fill="white"/>
</svg>
