<svg width="89" height="100" viewBox="0 0 89 100" fill="none" xmlns="http://www.w3.org/2000/svg">
<path d="M88.7304 29.3208C88.7297 27.6439 88.371 26.1621 87.6457 24.8903C86.9333 23.6398 85.8664 22.5916 84.4353 21.7629C72.6222 14.9514 60.7977 8.16076 48.9885 1.34236C45.8048 -0.495653 42.7179 -0.428645 39.5578 1.43575C34.8559 4.20873 11.3148 17.6959 4.29992 21.759C1.41097 23.4314 0.00520781 25.9909 0.00451344 29.3177C0 43.0159 0.00451344 56.7138 0 70.4125C0.000694375 72.0526 0.344063 73.5055 1.0374 74.7582C1.75017 76.0466 2.83201 77.1236 4.2961 77.9711C11.3114 82.0342 34.8555 95.5203 39.5565 98.294C42.7179 100.159 45.8048 100.226 48.9895 98.3874C60.7991 91.5687 72.6243 84.7784 84.4391 77.9669C85.9032 77.1198 86.985 76.0421 87.6978 74.7547C88.3901 73.5021 88.7342 72.0491 88.7349 70.4086C88.7349 70.4086 88.7349 43.0194 88.7304 29.3208" fill="#5C8DBC"/>
<path d="M44.5032 49.7317L1.0374 74.7584C1.75018 76.0468 2.83201 77.1237 4.2961 77.9712C11.3114 82.0344 34.8556 95.5205 39.5565 98.2942C42.718 100.16 45.8048 100.226 48.9896 98.3876C60.7992 91.5688 72.6244 84.7785 84.4392 77.9671C85.9033 77.1199 86.9851 76.0423 87.6979 74.7549L44.5032 49.7317" fill="#1A4674"/>
<path d="M31.6291 57.1448C34.1584 61.5603 38.9131 64.5384 44.3674 64.5384C49.8554 64.5384 54.6373 61.5224 57.1537 57.0597L44.5032 49.7317L31.6291 57.1448" fill="#1A4674"/>
<path d="M88.7304 29.3208C88.7297 27.6439 88.371 26.1621 87.6457 24.8904L44.5032 49.7317L87.6978 74.7549C88.3901 73.5022 88.7342 72.0493 88.7349 70.4088C88.7349 70.4088 88.7349 43.0195 88.7304 29.3208" fill="#1B598E"/>
<path d="M57.1537 57.0597C54.6373 61.5224 49.8555 64.5384 44.3675 64.5384C38.9131 64.5384 34.1584 61.5603 31.6291 57.1447C30.3586 54.9291 29.6913 52.419 29.6939 49.8649C29.6939 41.7612 36.2637 35.1917 44.3675 35.1917C49.7867 35.1917 54.5164 38.1327 57.0582 42.5031L69.8837 35.1178C64.7859 26.3179 55.2685 20.3977 44.3675 20.3977C28.0927 20.3977 14.8999 33.5908 14.8999 49.8649C14.8999 55.2039 16.3202 60.2107 18.8026 64.5294C23.8875 73.3757 33.4321 79.3324 44.3675 79.3324C55.323 79.3324 64.8824 73.3518 69.96 64.4794L57.1537 57.0597Z" fill="white"/>
</svg>
