<svg width="181" height="180" viewBox="0 0 181 180" fill="none" xmlns="http://www.w3.org/2000/svg">
<path d="M135.088 40L127.055 129.99L90.9461 140L54.937 130.004L46.9126 40H135.088Z" fill="#264DE4"/>
<path d="M120.177 124.259L127.042 47.3591H91V132.348L120.177 124.259Z" fill="#2965F1"/>
<path d="M65.3085 80.7402L66.2978 91.7787H91V80.7402H65.3085Z" fill="#EBEBEB"/>
<path d="M91.0001 58.3977H90.9619H63.3206L64.324 69.4364H91.0001V58.3977Z" fill="#EBEBEB"/>
<path d="M91 120.893V109.408L90.9516 109.421L78.6579 106.102L77.872 97.2979H71.8982H66.791L68.3375 114.63L90.9492 120.907L91 120.893Z" fill="#EBEBEB"/>
<path d="M104.555 91.7785L103.273 106.095L90.9619 109.418V120.902L113.592 114.63L113.758 112.765L116.352 83.7042L116.621 80.7401L118.614 58.3977H90.9619V69.4364H106.516L105.512 80.7401H90.9619V91.7785H104.555Z" fill="white"/>
</svg>
