<svg width="189" height="189" viewBox="0 0 189 189" fill="none" xmlns="http://www.w3.org/2000/svg">
<g filter="url(#filter0_d_33_2245)">
<path d="M81.8767 117.336C81.8767 117.336 78.0554 119.558 84.5963 120.31C92.5206 121.214 96.5703 121.084 105.303 119.431C105.303 119.431 107.599 120.871 110.805 122.118C91.2292 130.508 66.5006 121.632 81.8767 117.336ZM79.4845 106.387C79.4845 106.387 75.1985 109.56 81.7443 110.237C90.2092 111.11 96.894 111.182 108.462 108.954C108.462 108.954 110.062 110.576 112.577 111.463C88.9086 118.384 62.5461 112.009 79.4845 106.387Z" fill="#5382A1"/>
<path d="M99.6508 87.8152C104.474 93.3685 98.3835 98.3658 98.3835 98.3658C98.3835 98.3658 110.631 92.0433 105.006 84.1256C99.753 76.7425 95.7241 73.0735 117.534 60.4248C117.534 60.4248 83.2999 68.9748 99.6508 87.8149" fill="#E76F00"/>
<path d="M125.542 125.434C125.542 125.434 128.369 127.764 122.427 129.567C111.128 132.99 75.3972 134.023 65.4713 129.703C61.9034 128.151 68.5946 125.997 70.6992 125.545C72.8942 125.069 74.1487 125.158 74.1487 125.158C70.1806 122.362 48.5008 130.646 63.1365 133.018C103.05 139.491 135.894 130.104 125.542 125.434ZM83.7141 95.0437C83.7141 95.0437 65.5397 99.3607 77.2783 100.928C82.2346 101.592 92.115 101.442 101.318 100.67C108.84 100.036 116.393 98.687 116.393 98.687C116.393 98.687 113.74 99.8228 111.822 101.133C93.3655 105.987 57.7115 103.729 67.9758 98.7637C76.6564 94.5677 83.7144 95.0437 83.7144 95.0437H83.7141ZM116.318 113.268C135.079 103.518 126.405 94.1496 120.35 95.412C118.866 95.7207 118.204 95.9882 118.204 95.9882C118.204 95.9882 118.755 95.1254 119.807 94.7519C131.785 90.5406 140.998 107.172 115.941 113.759C115.941 113.759 116.231 113.5 116.318 113.268Z" fill="#5382A1"/>
<path d="M105.006 40.0003C105.006 40.0003 115.397 50.3946 95.1514 66.3772C78.9168 79.1985 91.4494 86.5086 95.1447 94.8609C85.6682 86.3109 78.7136 78.7841 83.3794 71.7791C90.2272 61.4957 109.198 56.5102 105.006 40" fill="#E76F00"/>
<path d="M85.5579 139.686C103.567 140.839 131.221 139.046 131.876 130.525C131.876 130.525 130.617 133.756 116.993 136.321C101.622 139.213 82.6643 138.876 71.4202 137.022C71.4205 137.022 73.722 138.927 85.5582 139.686" fill="#5382A1"/>
</g>
<defs>
<filter id="filter0_d_33_2245" x="0.723999" y="0" width="188.276" height="188.406" filterUnits="userSpaceOnUse" color-interpolation-filters="sRGB">
<feFlood flood-opacity="0" result="BackgroundImageFix"/>
<feColorMatrix in="SourceAlpha" type="matrix" values="0 0 0 0 0 0 0 0 0 0 0 0 0 0 0 0 0 0 127 0" result="hardAlpha"/>
<feOffset dy="4"/>
<feGaussianBlur stdDeviation="2"/>
<feComposite in2="hardAlpha" operator="out"/>
<feColorMatrix type="matrix" values="0 0 0 0 0 0 0 0 0 0 0 0 0 0 0 0 0 0 0.25 0"/>
<feBlend mode="normal" in2="BackgroundImageFix" result="effect1_dropShadow_33_2245"/>
<feBlend mode="normal" in="SourceGraphic" in2="effect1_dropShadow_33_2245" result="shape"/>
</filter>
</defs>
</svg>
