 <svg width="181" height="181" viewBox="0 0 181 181" fill="none" xmlns="http://www.w3.org/2000/svg">
<path d="M90.6397 40.2598C65.2535 40.2598 66.8385 51.2687 66.8385 51.2687L66.8667 62.6744H91.0924V66.0987H57.2447C57.2447 66.0987 41 64.2563 41 89.8709C41 115.486 55.1788 114.578 55.1788 114.578H63.6406V102.691C63.6406 102.691 63.1844 88.5125 77.593 88.5125H101.621C101.621 88.5125 115.12 88.7306 115.12 75.4658V53.5332C115.12 53.5332 117.17 40.2598 90.6397 40.2598ZM77.2817 47.9298C77.8542 47.9293 78.4211 48.0417 78.9501 48.2605C79.4791 48.4794 79.9598 48.8004 80.3646 49.2052C80.7693 49.61 81.0903 50.0906 81.3092 50.6196C81.528 51.1486 81.6404 51.7155 81.6399 52.288C81.6404 52.8605 81.528 53.4274 81.3092 53.9564C81.0903 54.4854 80.7693 54.9661 80.3646 55.3708C79.9598 55.7756 79.4791 56.0966 78.9501 56.3155C78.4211 56.5343 77.8542 56.6467 77.2817 56.6462C76.7092 56.6467 76.1423 56.5343 75.6133 56.3155C75.0843 56.0966 74.6037 55.7756 74.1989 55.3708C73.7941 54.9661 73.4731 54.4854 73.2542 53.9564C73.0354 53.4274 72.923 52.8605 72.9235 52.288C72.923 51.7155 73.0354 51.1486 73.2542 50.6196C73.4731 50.0906 73.7941 49.61 74.1989 49.2052C74.6037 48.8004 75.0843 48.4794 75.6133 48.2605C76.1423 48.0417 76.7092 47.9293 77.2817 47.9298Z" fill="url(#paint0_linear_22_688)"/>
<path d="M91.3607 139.74C116.747 139.74 115.162 128.731 115.162 128.731L115.134 117.325H90.9076V113.901H124.755C124.755 113.901 141 115.743 141 90.128C141 64.513 126.821 65.4215 126.821 65.4215H118.359V77.3076C118.359 77.3076 118.816 91.4864 104.407 91.4864H80.3795C80.3795 91.4864 66.8801 91.2683 66.8801 104.533V126.467C66.8801 126.467 64.8302 139.74 91.3603 139.74H91.3607ZM104.719 132.07C104.146 132.071 103.579 131.958 103.05 131.74C102.521 131.521 102.041 131.2 101.636 130.795C101.231 130.39 100.91 129.91 100.691 129.381C100.472 128.852 100.36 128.285 100.361 127.712C100.36 127.14 100.472 126.573 100.691 126.044C100.91 125.515 101.231 125.034 101.636 124.629C102.041 124.224 102.521 123.903 103.05 123.684C103.579 123.465 104.146 123.353 104.719 123.354C105.291 123.353 105.858 123.465 106.387 123.684C106.916 123.903 107.397 124.224 107.802 124.629C108.206 125.034 108.527 125.514 108.746 126.043C108.965 126.572 109.077 127.139 109.077 127.712C109.077 128.284 108.965 128.851 108.746 129.38C108.527 129.909 108.206 130.39 107.802 130.795C107.397 131.199 106.916 131.52 106.387 131.739C105.858 131.958 105.291 132.07 104.719 132.07V132.07Z" fill="url(#paint1_linear_22_688)"/>
<defs>
<linearGradient id="paint0_linear_22_688" x1="50.61" y1="49.2074" x2="100.167" y2="98.2699" gradientUnits="userSpaceOnUse">
<stop stop-color="#387EB8"/>
<stop offset="1" stop-color="#366994"/>
</linearGradient>
<linearGradient id="paint1_linear_22_688" x1="81.0281" y1="80.7122" x2="134.247" y2="131.021" gradientUnits="userSpaceOnUse">
<stop stop-color="#FFE052"/>
<stop offset="1" stop-color="#FFC331"/>
</linearGradient>
</defs>
</svg>
