<svg width="181" height="181" viewBox="0 0 181 181" fill="none" xmlns="http://www.w3.org/2000/svg">
<path d="M40 40H140V140H40V40Z" fill="#017ACB"/>
<path d="M88.0157 77.0312H92.8126V85.3125H79.8438V122.156L79.5 122.25C79.0313 122.375 72.8594 122.375 71.5313 122.234L70.4688 122.141V85.3125H57.5V77.0312L61.6094 76.9844C63.8594 76.9531 69.6406 76.9531 74.4532 76.9844C79.2657 77.0156 85.3594 77.0312 88.0157 77.0312V77.0312ZM124.625 118.25C122.719 120.266 120.672 121.391 117.266 122.312C115.781 122.719 115.531 122.734 112.188 122.719C108.844 122.703 108.578 122.703 106.953 122.281C102.75 121.203 99.3594 119.094 97.0469 116.109C96.3907 115.266 95.3126 113.516 95.3126 113.297C95.3126 113.234 95.4688 113.094 95.6719 113C95.8751 112.906 96.2969 112.641 96.6407 112.437C96.9844 112.234 97.6094 111.859 98.0313 111.641C98.4532 111.422 99.6719 110.703 100.734 110.062C101.797 109.422 102.766 108.906 102.875 108.906C102.984 108.906 103.188 109.125 103.344 109.391C104.281 110.969 106.469 112.984 108.016 113.672C108.969 114.078 111.078 114.531 112.094 114.531C113.031 114.531 114.75 114.125 115.672 113.703C116.656 113.25 117.156 112.797 117.75 111.891C118.156 111.25 118.203 111.078 118.188 109.859C118.188 108.734 118.125 108.422 117.813 107.906C116.938 106.469 115.75 105.719 110.938 103.594C105.969 101.391 103.734 100.078 101.922 98.3125C100.578 97 100.313 96.6406 99.4688 95C98.3751 92.8906 98.2344 92.2031 98.2188 89.0625C98.2032 86.8594 98.2501 86.1406 98.4844 85.3906C98.8126 84.2656 99.8751 82.0937 100.359 81.5469C101.359 80.375 101.719 80.0156 102.422 79.4375C104.547 77.6875 107.859 76.5312 111.031 76.4219C111.391 76.4219 112.578 76.4844 113.688 76.5625C116.875 76.8281 119.047 77.6094 121.141 79.2812C122.719 80.5312 125.109 83.4688 124.875 83.8594C124.719 84.0938 118.484 88.25 118.078 88.375C117.828 88.4531 117.656 88.3594 117.313 87.9531C115.188 85.4062 114.328 84.8594 112.266 84.7344C110.797 84.6406 110.016 84.8125 109.031 85.4687C108 86.1562 107.5 87.2031 107.5 88.6562C107.516 90.7812 108.328 91.7812 111.328 93.2656C113.266 94.2187 114.922 95 115.047 95C115.234 95 119.25 97 120.297 97.625C125.172 100.484 127.156 103.422 127.672 108.484C128.047 112.297 126.969 115.781 124.625 118.25V118.25Z" fill="white"/>
</svg>
